<?xml version="1.0" encoding="utf-8"?>
<!-- Generator: Adobe Illustrator 16.0.0, SVG Export Plug-In . SVG Version: 6.00 Build 0)  -->
<!DOCTYPE svg PUBLIC "-//W3C//DTD SVG 1.1//EN" "http://www.w3.org/Graphics/SVG/1.1/DTD/svg11.dtd">
<svg version="1.1" id="Layer_1" xmlns="http://www.w3.org/2000/svg" xmlns:xlink="http://www.w3.org/1999/xlink" x="0px" y="0px"
	 width="400px" height="90px" viewBox="188.36 40.187 400 90" enable-background="new 188.36 40.187 400 90" xml:space="preserve">
<path fill="#FFFFFF" d="M525.875,112.319h-1.031h-0.577l-0.197,0.54c-2.855,7.882-5.199,10.041-10.909,10.041h-12.972
	c-1.929,0-2.27-0.318-2.27-2.127v-19.214h4.254c4.795,0,6.561,1.606,6.998,6.367l0.068,0.746h0.752h1.029h0.824v-0.822V90.417
	v-0.822h-0.824h-0.945h-0.734l-0.082,0.729c-0.52,4.596-2.548,6.471-7,6.471h-4.34V77.275h13.188c6.194,0,8.56,6.231,9.421,9.944
	l0.147,0.636h0.653h1.118h0.956l-0.144-0.944l-2.061-13.618l-0.105-0.699h-0.708h-39.097h-0.822v0.823v1.041v0.8l0.8,0.023
	c4.624,0.129,5.471,2.365,5.471,6.724v36.169c0,4.843-1.531,6.751-5.462,6.811l-0.809,0.011v0.812v1.127v0.822h0.822h42.44h0.704
	l0.107-0.695l2.146-13.793l0.146-0.948H525.875L525.875,112.319z"/>
<path fill="#FFFFFF" d="M478.494,86.818l-2.147-13.531l-0.111-0.693h-0.701h-45.276h-0.708l-0.107,0.699l-2.061,13.616l-0.142,0.946
	h0.956h1.202h0.654l0.147-0.638c1.572-6.876,4.875-9.942,10.711-9.942h6.222v40.896c0,4.389-0.784,6.401-5.422,6.726l-0.765,0.054
	v0.768v1.213v0.822h0.822h22.423h0.824v-0.822v-1.212v-0.801l-0.799-0.021c-4.231-0.12-5.73-1.881-5.73-6.726V77.275h6.652
	c6.127,0,9.327,2.941,10.704,9.833l0.134,0.661h0.675h1.029h0.965L478.494,86.818z"/>
<path fill="#FFFFFF" d="M414.032,94.939c-1.892-0.743-3.872-1.485-5.786-2.204c-1.939-0.729-3.947-1.482-5.811-2.217
	c-2.021-0.799-5.406-2.717-5.406-6.609c0-4.08,4.411-7.155,10.259-7.155c8.656,0,13.274,3.144,15.444,10.511l0.177,0.59h0.615h1.029
	h0.965l-0.151-0.95l-2.147-13.617l-0.109-0.695h-0.703h-0.687h-0.512l-0.225,0.458c-0.505,1.016-0.915,1.016-1.068,1.016
	c-1.025,0-2.262-0.415-3.692-0.894c-2.264-0.761-5.084-1.707-8.85-1.707c-12.414,0-20.757,6.325-20.757,15.74
	c0,7.019,3.966,11.951,12.128,15.08c1.999,0.768,3.836,1.435,5.776,2.14l1.28,0.466c10.434,3.808,11.916,5.531,11.916,9.898
	c0,5.109-4.094,8.282-10.687,8.282c-10.569,0-16.139-4.019-18.62-13.438l-0.161-0.613h-0.637h-0.943h-0.953l0.138,0.943l2.49,17.086
	l0.104,0.703h0.711h0.858h0.643l0.157-0.625c0.265-1.063,0.74-1.541,1.091-1.541c0.916,0,2.188,0.351,3.8,0.796
	c3.023,0.836,7.168,1.98,12.952,1.98c11.349,0,20.581-7.647,20.581-17.044C429.243,102.698,423.162,98.538,414.032,94.939z"/>
<path fill="#FFFFFF" d="M382.029,72.591h-22.421h-0.823v0.824v1.041v0.801l0.801,0.021c4.725,0.129,5.557,2.299,5.557,6.811v36.082
	c0,4.494-0.804,6.53-5.568,6.726l-0.79,0.031v0.791v1.212v0.824h0.823h22.421h0.824v-0.824v-1.212v-0.801l-0.801-0.021
	c-4.218-0.12-5.643-1.817-5.643-6.726V82.089c0-4.972,1.425-6.69,5.643-6.811l0.801-0.022v-0.801v-1.04v-0.824H382.029
	L382.029,72.591z"/>
<path fill="#FFFFFF" d="M358.75,98.875h-22.853h-0.823v0.822v1.039v0.822h0.823c4.57,0,5.621,1.292,5.621,6.9v8.412
	c0,3.967-1.465,8.025-12.321,8.025c-10.342,0-16.274-9.25-16.274-25.374c0-16.2,5.707-24.416,16.961-24.416
	c9.075,0,14.746,3.955,17.342,12.088l0.183,0.573h0.602h1.031h0.944l-0.128-0.934l-1.89-13.791l-0.098-0.711h-0.718h-0.688h-0.402
	l-0.247,0.315c-0.479,0.612-0.905,0.986-2.787,0.986c-1.248,0-2.992-0.542-4.84-1.113c-2.511-0.779-5.358-1.661-8.218-1.661
	c-9.137,0-16.684,2.999-21.826,8.672c-4.807,5.304-7.346,12.666-7.346,21.294c0,8.187,2.731,15.196,7.899,20.263
	c5.314,5.213,12.848,7.968,21.788,7.968c5.416,0,8.938-1.111,12.342-2.184l0.62-0.195c0.572-0.181,1.179-0.384,1.805-0.593
	c2.239-0.749,4.774-1.599,6.84-1.714l0.777-0.042v-0.778v-15.092c0-5.342,1.108-6.632,5.925-6.9l0.777-0.042v-0.78v-1.039v-0.822
	H358.75L358.75,98.875z"/>
<path fill="#FFFFFF" d="M587.306,125.534c-0.606,0.195-1.604,0.311-2.669,0.311c-1.646,0-2.88-1.643-5.583-5.237
	c-0.42-0.557-0.872-1.158-1.365-1.805c-2.22-2.914-4.19-5.56-6.204-8.326l-0.642-0.882c-2.641-3.641-4.688-6.465-7.579-7.956
	c7.109-2.362,12.396-8.61,12.396-15.035c0-8.642-7.325-14.009-19.118-14.009h-26.629h-0.823v0.823v1.041v0.807l0.806,0.016
	c3.892,0.076,5.552,2.164,5.552,6.984v35.909c0,4.705-1.608,6.653-5.548,6.724l-0.81,0.014v0.809v1.214v0.822h0.823h22.68h0.822
	v-0.822v-1.214v-0.809l-0.807-0.014c-4.136-0.078-5.979-2.152-5.979-6.724v-14.616h3.391c3.379,0,5.089,0.892,6.781,3.525
	c1.352,2.105,2.93,4.49,4.928,7.514c0.882,1.334,1.842,2.786,2.891,4.379l0.721,1.095c3.403,5.203,6.616,10.117,13.455,10.117
	c4.6,0,6.971-0.694,9.12-1.735l0.464-0.227v-0.516v-1.39v-1.125L587.306,125.534z M564.054,87.642c0,7.7-5.368,11.146-10.688,11.146
	h-6.736V77.275h6.993C560.445,77.275,564.054,80.86,564.054,87.642z"/>
<path fill="#FFFFFF" d="M299.697,112.317h-0.86h-0.582l-0.194,0.548c-2.658,7.502-5.475,10.035-11.166,10.035H274.01
	c-2.44,0-2.44-0.472-2.44-1.605v-19.735h4.425c4.858,0,6.646,1.606,7.084,6.367l0.068,0.746h0.751h0.86h0.823v-0.822V90.415v-0.822
	h-0.823h-0.601h-0.735l-0.083,0.73c-0.514,4.534-2.685,6.469-7.259,6.469h-4.51V77.275h13.188c6.434,0,8.825,6.23,9.678,9.942
	l0.146,0.638h0.656h0.859h0.957l-0.143-0.946l-2.061-13.615l-0.105-0.699h-0.709h-39.098h-0.823v0.823v1.039v0.791l0.79,0.033
	c4.618,0.188,5.397,2.225,5.397,6.724v36.343c0,4.647-1.224,6.296-4.677,6.296c-3.415,0-6.802-4.777-10.388-9.835l-0.536-0.756
	c-1.809-2.54-3.41-4.845-5.263-7.513l-0.74-1.062c-2.139-3.079-4.65-5.259-7.494-6.511c5.099-1.624,12.615-5.782,12.615-16.181
	c0-10.084-9.396-16.35-24.522-16.35c-12.696,0-24.198,2.093-28.994,3.33l-0.509,0.132l-0.095,0.517l-1.203,6.504l-0.137,0.74
	l0.727,0.202l0.944,0.262l0.54,0.148l0.336-0.446c1.79-2.371,3.497-4.039,10.117-5.17v45.52c0,4.596-1.788,6.542-6.17,6.724
	l-0.789,0.033v0.789v1.212v0.822h0.821h23.97h0.822v-0.822v-1.212v-0.789l-0.789-0.033c-4.445-0.182-6.342-2.195-6.342-6.724
	v-17.393h4.771c4.417,0,6.316,1.753,7.947,4.576c1.706,2.955,4.384,7.577,7.917,13.582c3.936,6.677,7.812,10.816,14.97,10.816
	c4.205,0,7.703-0.637,10.991-2.002h38.233h0.695l0.117-0.686l2.32-13.791l0.161-0.958h-0.973V112.317z M231.521,83.826
	c0,7.632-4.285,12.189-11.462,12.189h-7.511V71.48c1.696-0.162,3.806-0.364,6.749-0.364
	C225.206,71.116,231.521,74.455,231.521,83.826z"/>
<g>
	<path fill="#FFFFFF" d="M282.029,63.04c1.153-0.122,1.9-0.327,2.242-0.617c0.343-0.289,0.514-1.021,0.514-2.199V46.282
		c0-1.111-0.169-1.838-0.505-2.18c-0.335-0.342-1.086-0.553-2.25-0.634v-0.582h8.846v0.582c-1.153,0.062-1.927,0.249-2.318,0.566
		c-0.393,0.316-0.59,0.995-0.59,2.036v15.058c0,0.347,0.059,0.619,0.177,0.818c0.118,0.199,0.375,0.324,0.774,0.375
		c0.234,0.031,0.482,0.051,0.743,0.061c0.261,0.011,0.749,0.016,1.463,0.016c2.789,0,4.673-0.229,5.654-0.689
		c0.98-0.459,1.931-1.632,2.85-3.52h0.797l-1.532,5.434H282.03L282.029,63.04L282.029,63.04z"/>
	<path fill="#FFFFFF" d="M305.691,45.211c1.929-1.846,4.301-2.769,7.117-2.769c2.825,0,5.204,0.929,7.131,2.785
		c2.091,2.01,3.138,4.688,3.138,8.034c0,3.398-1.082,6.101-3.244,8.111c-1.939,1.795-4.281,2.693-7.025,2.693
		c-2.938,0-5.376-0.995-7.315-2.984c-1.969-2.03-2.952-4.637-2.952-7.821C302.54,49.915,303.589,47.231,305.691,45.211z
		 M308.036,60.569c1.297,1.576,2.89,2.364,4.78,2.364c1.849,0,3.429-0.769,4.741-2.304c1.313-1.535,1.969-3.991,1.969-7.369
		c0-3.417-0.664-5.886-1.992-7.407c-1.329-1.52-2.901-2.28-4.718-2.28c-1.88,0-3.47,0.788-4.773,2.364
		c-1.302,1.578-1.954,4.018-1.954,7.323C306.089,56.556,306.738,58.993,308.036,60.569z"/>
	<path fill="#FFFFFF" d="M327.042,57.316c0.53,1.407,1.151,2.53,1.864,3.367c1.243,1.459,2.786,2.188,4.63,2.188
		c0.998,0,1.862-0.316,2.59-0.949c0.728-0.633,1.091-1.515,1.091-2.648c0-1.02-0.365-1.908-1.099-2.662
		c-0.479-0.481-1.487-1.199-3.024-2.158l-2.673-1.668c-0.805-0.509-1.446-1.024-1.925-1.544c-0.888-0.99-1.331-2.082-1.331-3.275
		c0-1.582,0.525-2.898,1.576-3.948c1.05-1.051,2.443-1.577,4.177-1.577c0.714,0,1.574,0.176,2.579,0.527
		c1.005,0.353,1.579,0.528,1.721,0.528c0.388,0,0.656-0.092,0.804-0.275c0.147-0.183,0.263-0.444,0.344-0.78h0.643l0.688,6.672
		h-0.75c-0.51-2.01-1.329-3.413-2.456-4.208c-1.128-0.796-2.242-1.194-3.345-1.194c-0.856,0-1.604,0.252-2.242,0.758
		c-0.637,0.505-0.957,1.207-0.957,2.104c0,0.806,0.246,1.495,0.733,2.067c0.488,0.581,1.248,1.188,2.278,1.82l2.753,1.699
		c1.722,1.062,2.936,2.036,3.643,2.922c0.697,0.899,1.045,1.96,1.045,3.185c0,1.643-0.621,3.014-1.86,4.116
		c-1.239,1.103-2.823,1.653-4.752,1.653c-0.97,0-1.982-0.184-3.038-0.551c-1.056-0.367-1.661-0.55-1.813-0.55
		c-0.367,0-0.614,0.112-0.742,0.336c-0.128,0.225-0.211,0.464-0.253,0.719h-0.688l-0.935-6.671L327.042,57.316L327.042,57.316z"/>
	<path fill="#FFFFFF" d="M350.603,63.622V63.04c0.805-0.092,1.41-0.394,1.813-0.91c0.402-0.516,1.093-1.926,2.072-4.232l6.528-15.38
		h0.625l7.809,17.767c0.521,1.177,0.937,1.906,1.248,2.185c0.311,0.278,0.834,0.469,1.568,0.57v0.582h-7.971v-0.582
		c0.917-0.081,1.507-0.18,1.771-0.297c0.266-0.116,0.399-0.403,0.399-0.86c0-0.152-0.052-0.421-0.155-0.807
		c-0.101-0.385-0.245-0.791-0.428-1.217l-1.254-3.016h-8.26c-0.813,2.05-1.299,3.302-1.458,3.754s-0.238,0.809-0.238,1.073
		c0,0.528,0.215,0.893,0.643,1.097c0.265,0.123,0.764,0.213,1.497,0.274v0.582H350.603z M364.101,55.572l-3.592-8.631l-3.608,8.631
		H364.101z"/>
	<path fill="#FFFFFF" d="M373.91,63.04c1.295-0.133,2.128-0.425,2.494-0.879c0.368-0.454,0.55-1.505,0.55-3.158V45.195l-0.427-0.504
		c-0.46-0.541-0.85-0.874-1.17-1.002c-0.321-0.126-0.803-0.201-1.447-0.221v-0.583h5.347l12.1,14.996V47.466
		c0-1.714-0.255-2.829-0.766-3.346c-0.337-0.333-1.081-0.551-2.235-0.653v-0.583h7.362v0.583c-1.194,0.122-1.99,0.412-2.387,0.872
		c-0.399,0.458-0.597,1.51-0.597,3.152v16.497h-0.536l-13.866-17.185v12.201c0,1.712,0.25,2.828,0.75,3.348
		c0.326,0.336,1.056,0.566,2.188,0.688v0.582h-7.361V63.04z"/>
	<path fill="#FFFFFF" d="M412.155,43.023c1.174,0.337,1.847,0.505,2.02,0.505c0.448,0,0.769-0.088,0.958-0.26
		c0.188-0.173,0.349-0.423,0.481-0.75h0.688l0.245,6.596h-0.719c-0.643-1.52-1.306-2.653-1.99-3.397
		c-1.232-1.306-2.841-1.959-4.819-1.959c-2.012,0-3.777,0.763-5.304,2.288c-1.523,1.525-2.287,4.038-2.287,7.536
		c0,2.888,0.76,5.142,2.281,6.764c1.519,1.622,3.397,2.434,5.631,2.434c0.378,0,0.823-0.036,1.333-0.107s0.993-0.183,1.453-0.336
		c0.744-0.244,1.208-0.456,1.392-0.634c0.183-0.178,0.276-0.439,0.276-0.786v-4.993c0-1.209-0.173-1.963-0.514-2.261
		c-0.342-0.298-1.087-0.483-2.243-0.554v-0.582h7.988v0.582c-0.774,0.051-1.29,0.178-1.545,0.382c-0.428,0.327-0.643,1-0.643,2.021
		v6.167c0,0.367-0.9,0.857-2.699,1.469c-1.802,0.611-3.533,0.918-5.197,0.918c-3.06,0-5.643-0.894-7.743-2.678
		c-2.314-1.969-3.473-4.611-3.473-7.928c0-2.917,0.923-5.417,2.769-7.498c2.03-2.295,4.725-3.443,8.081-3.443
		C409.788,42.518,410.982,42.687,412.155,43.023z"/>
	<path fill="#FFFFFF" d="M420.742,63.04c1.154-0.122,1.9-0.327,2.243-0.617c0.342-0.289,0.513-1.021,0.513-2.199V46.282
		c0-1.111-0.167-1.838-0.505-2.18c-0.335-0.342-1.087-0.553-2.251-0.634v-0.582h16.653l0.105,4.483h-0.796
		c-0.267-1.38-0.663-2.273-1.192-2.679c-0.531-0.406-1.714-0.61-3.553-0.61h-4.266c-0.46,0-0.742,0.074-0.85,0.221
		c-0.109,0.148-0.163,0.427-0.163,0.834v6.993h4.836c1.336,0,2.189-0.197,2.556-0.593c0.367-0.396,0.663-1.197,0.889-2.406h0.732
		v7.238h-0.732c-0.235-1.214-0.534-2.018-0.904-2.411c-0.366-0.392-1.214-0.588-2.54-0.588h-4.836v7.758
		c0,0.623,0.196,0.989,0.591,1.101c0.394,0.114,1.57,0.169,3.531,0.169c2.127,0,3.692-0.232,4.707-0.696
		c1.011-0.464,1.921-1.59,2.727-3.375h0.87l-1.423,5.295h-16.942V63.04L420.742,63.04z"/>
	<path fill="#FFFFFF" d="M440.672,63.04c1.152-0.122,1.899-0.327,2.243-0.617c0.341-0.289,0.512-1.021,0.512-2.199V46.282
		c0-1.111-0.169-1.838-0.504-2.18c-0.336-0.342-1.088-0.553-2.249-0.634v-0.582h8.844v0.582c-1.152,0.062-1.927,0.249-2.317,0.566
		c-0.394,0.316-0.589,0.995-0.589,2.036v15.058c0,0.347,0.058,0.619,0.176,0.818c0.115,0.199,0.374,0.324,0.773,0.375
		c0.235,0.031,0.482,0.051,0.743,0.061c0.261,0.011,0.748,0.016,1.463,0.016c2.788,0,4.673-0.229,5.654-0.689
		s1.931-1.632,2.851-3.52h0.796l-1.532,5.434h-16.861V63.04H440.672z"/>
	<path fill="#FFFFFF" d="M460.599,63.04c1.152-0.122,1.9-0.327,2.243-0.617c0.342-0.289,0.512-1.021,0.512-2.199V46.282
		c0-1.111-0.168-1.838-0.504-2.18c-0.335-0.342-1.087-0.553-2.249-0.634v-0.582h16.649l0.106,4.483h-0.795
		c-0.267-1.38-0.663-2.273-1.192-2.679c-0.531-0.406-1.716-0.61-3.551-0.61h-4.268c-0.46,0-0.744,0.074-0.852,0.221
		c-0.107,0.148-0.161,0.427-0.161,0.834v6.993h4.837c1.337,0,2.188-0.197,2.554-0.593c0.368-0.396,0.666-1.197,0.89-2.406h0.732
		v7.238h-0.732c-0.235-1.214-0.536-2.018-0.904-2.411c-0.368-0.392-1.214-0.588-2.539-0.588h-4.837v7.758
		c0,0.623,0.195,0.989,0.591,1.101c0.393,0.114,1.57,0.169,3.531,0.169c2.124,0,3.694-0.232,4.705-0.696
		c1.01-0.464,1.921-1.59,2.726-3.375h0.873l-1.423,5.295h-16.942V63.04z"/>
	<path fill="#FFFFFF" d="M482.196,57.316c0.528,1.407,1.15,2.53,1.863,3.367c1.242,1.459,2.785,2.188,4.628,2.188
		c0.999,0,1.863-0.316,2.592-0.949s1.091-1.515,1.091-2.648c0-1.02-0.366-1.908-1.099-2.662c-0.479-0.481-1.485-1.199-3.025-2.158
		l-2.67-1.668c-0.806-0.509-1.449-1.024-1.927-1.544c-0.89-0.99-1.333-2.082-1.333-3.275c0-1.582,0.525-2.898,1.576-3.948
		c1.053-1.051,2.444-1.577,4.18-1.577c0.713,0,1.572,0.176,2.578,0.527c1.005,0.353,1.578,0.528,1.722,0.528
		c0.388,0,0.656-0.092,0.804-0.275c0.147-0.183,0.263-0.444,0.345-0.78h0.643l0.688,6.672h-0.75c-0.51-2.01-1.328-3.413-2.458-4.208
		c-1.127-0.796-2.241-1.194-3.342-1.194c-0.856,0-1.604,0.252-2.243,0.758c-0.636,0.505-0.956,1.207-0.956,2.104
		c0,0.806,0.245,1.495,0.734,2.067c0.488,0.581,1.248,1.188,2.277,1.82l2.753,1.699c1.722,1.062,2.938,2.036,3.645,2.922
		c0.694,0.899,1.045,1.96,1.045,3.185c0,1.643-0.621,3.014-1.861,4.116c-1.238,1.103-2.822,1.653-4.751,1.653
		c-0.97,0-1.982-0.184-3.037-0.551c-1.056-0.367-1.66-0.55-1.815-0.55c-0.366,0-0.613,0.112-0.742,0.336
		c-0.126,0.225-0.21,0.464-0.251,0.719h-0.688l-0.935-6.671L482.196,57.316L482.196,57.316z"/>
</g>
</svg>
