<?xml version="1.0" encoding="utf-8"?>
<!-- Generator: Adobe Illustrator 16.0.0, SVG Export Plug-In . SVG Version: 6.00 Build 0)  -->
<!DOCTYPE svg PUBLIC "-//W3C//DTD SVG 1.1//EN" "http://www.w3.org/Graphics/SVG/1.1/DTD/svg11.dtd">
<svg version="1.1" xmlns="http://www.w3.org/2000/svg" xmlns:xlink="http://www.w3.org/1999/xlink" x="0px" y="0px" width="400px"
	 height="90px" viewBox="0 0 400 90" enable-background="new 0 0 400 90" xml:space="preserve">
<g id="Layer_2" display="none">
</g>
<g id="Layer_1">
	<g>
		<path fill="#FFFFFF" d="M399.778,87.457c-2.487,1.372-4.771,2.504-10.41,2.504c-8.312,0-10.956-4.784-15.609-11.892
			c-3.188-4.863-5.979-9.049-7.422-11.194c-1.383-2.06-3.179-3.275-6.484-3.275h-1.2v13.179c0,3.599,1.457,5.429,6.654,5.429v5.429
			h-26.79v-5.429c4.997,0,6.315-1.452,6.315-5.429V41.113c0-3.942-1.297-5.683-6.403-5.683v-5.257h28.584
			c11.459,0,20.476,5.071,20.476,15.251c0,7.013-4.995,13.354-11.422,15.146v0.101c2.027,0.497,4.735,4.598,6.963,7.756
			c2.17,3.073,3.86,5.38,6.142,8.537c2.049,2.838,4.189,6.017,6.598,6.017c1.438,0,3.067-0.312,4.01-0.604V87.457L399.778,87.457z
			 M399.267,87.112v-3.961c-1.131,0.384-2.229,0.43-3.753,0.43c-2.493,0-4.324-2.769-6.862-6.276
			c-2.099-2.903-3.958-5.466-6.231-8.625c-2.8-3.894-4.661-7.171-7.8-8.095l0.011-0.102c7.526-2.135,12.262-8.297,12.262-15.06
			c0-9.768-8.732-14.734-19.88-14.734h-27.9v4.221c4.97,0.052,6.314,2.099,6.314,6.203v35.666c0,4.146-1.283,5.898-6.314,5.943
			v4.397h25.599v-4.397c-5.035-0.049-6.656-1.885-6.656-5.943V62.995h1.456c3.959,0,5.807,1.112,7.508,3.707
			c1.524,2.318,3.892,5.906,7.336,11.111c4.637,7.001,7.04,11.547,15.014,11.547C394.754,89.36,396.785,88.315,399.267,87.112
			L399.267,87.112z"/>
		<path fill="#FFFFFF" d="M338.942,69.628l-2.728,18.008h-46.079v-5.428c5.435-0.124,6.227-1.366,6.227-5.43V40.855
			c0-4.035-0.751-5.292-6.227-5.514v-5.169h43.096l2.305,17.833h-5.287c-1.814-7.537-4.347-10.681-8.361-10.681h-11.7v16.884h2.907
			c3.365,0,5.389-1.236,5.722-7.149h5.199v21.537h-5.199c-0.672-6.148-1.886-6.977-5.806-6.977h-2.823v17.233
			c0,0.841,0.347,1.286,1.795,1.286h11.941c4.713,0,7.16-1.812,10.07-10.511H338.942L338.942,69.628z M338.262,70.232h-3.84
			c-3.002,8.595-5.465,10.511-10.498,10.511h-12.369c-1.526,0-1.964-0.538-1.964-1.806V61.015h3.42c4.202,0,5.787,0.972,6.315,6.979
			h4.013V47.66h-3.841c-0.65,5.987-2.714,7.152-6.403,7.152h-3.504V36.808h12.297c4.666,0,7.129,3.373,8.873,10.508h3.923
			l-2.132-16.626h-41.817v4.136c5.402,0.145,6.227,1.834,6.227,6.03v35.923c0,4.211-0.935,5.799-6.227,5.943v4.397H335.7
			L338.262,70.232L338.262,70.232z"/>
		<path fill="#FFFFFF" d="M290.906,47.92h-4.866c-1.553-7.77-4.768-10.509-9.811-10.509h-5.378v39.367
			c0,3.896,0.694,5.279,6.569,5.429v5.429h-26.535v-5.429c5.549-0.149,6.229-1.417,6.229-5.429V37.412h-4.947
			c-5.401,0-8.045,3.132-9.558,10.509h-8.788c-2.283-7.668-5.782-11.028-14.506-11.028c-5.773,0-8.791,2.961-8.791,5.858
			c0,2.283,1.351,4.246,4.439,5.429c3.828,1.463,7.408,2.772,11.351,4.305c8.032,3.133,16.124,7.484,16.124,17.487
			c0,10.395-10.383,18.177-21.758,18.177c-8.401,0-13.136-2.495-15.274-2.495c-0.567,0-1.115,0.3-1.535,1.982h-4.694l-2.643-21.28
			h4.775c3.51,11.952,9.347,13.956,17.75,13.956c6.664,0,9.215-3.418,9.215-6.892c0-3.45-1.027-4.839-10.921-8.701
			c-2.022-0.789-4.4-1.662-6.743-2.502c-6.277-2.245-13.224-6.43-13.224-16.194c0-11.405,10.711-17.052,22.014-17.052
			c6.156,0,9.96,2.583,11.774,2.583c0.579,0,1.168-0.375,1.366-1.38h3.924l1.536,12.239h0.085l1.536-12.239h48.977L290.906,47.92
			L290.906,47.92z M290.223,47.231l-2.135-16.542h-47.955l-2.047,15.076h-0.085l-2.13-15.076h-2.902
			c-0.252,1.003-1.028,1.552-1.537,1.552c-2.241,0-6.046-2.671-12.031-2.671c-11.186,0-21.333,5.493-21.333,16.452
			c0,8.828,5.612,12.834,12.543,15.512c2.599,0.999,4.827,1.744,6.997,2.58c10.183,3.932,11.348,5.429,11.348,9.306
			c0,3.859-2.687,7.496-9.896,7.496c-8.642,0-14.694-2.182-18.174-13.956h-3.587l2.478,20.159h3.584
			c0.425-1.621,0.973-2.07,1.705-2.07c2.649,0,7.384,2.587,15.615,2.587c11.199,0,21.16-7.666,21.16-17.664
			c0-9.622-7.924-13.791-15.784-16.969c-3.936-1.595-7.773-2.934-11.35-4.308c-3.051-1.175-4.863-3.236-4.863-5.945
			c0-3.288,3.515-6.459,9.472-6.459c8.983,0,12.877,3.595,15.018,11.025h3.753h4.013c1.531-7.209,4.301-10.508,10.068-10.508h5.459
			v39.971c0,4.107-0.812,5.799-6.142,5.943v4.397h25.425v-4.397c-5.582-0.145-6.653-1.867-6.653-5.943V36.808h5.974
			c5.494,0,8.815,2.996,10.322,10.424H290.223L290.223,47.231z"/>
		<path fill="#FFFFFF" d="M196.445,87.636H169.91v-5.429c5.621-0.149,6.229-1.417,6.229-5.429V40.94
			c0-3.909-0.729-5.208-6.314-5.426v-5.342h26.62v5.342c-5.476,0-6.399,1.482-6.399,5.426v35.838c0,3.946,0.854,5.279,6.399,5.429
			V87.636L196.445,87.636z M195.85,87.119v-4.397c-5.33-0.071-6.398-1.867-6.398-5.943V40.94c0-4.076,1.068-5.957,6.398-6.03v-4.221
			h-25.426v4.221c5.583,0.222,6.312,2.099,6.312,6.03v35.838c0,3.932-0.836,5.872-6.312,5.943v4.397H195.85L195.85,87.119z"/>
		<path fill="#FFFFFF" d="M173.236,61.619c-5.476,0.217-6.653,0.759-6.653,5.514v17.055c-3.819,0.115-6.679,1.211-10.237,2.327
			c-3.749,1.178-7.455,2.326-13.313,2.326c-13.724,0-23.682-6.329-27.988-15.943h-0.084l-2.305,14.738H72.894
			c-2.505,0.852-5.546,1.812-11.006,1.812c-8.409,0-11.812-4.327-16.038-11.378c-3.532-5.889-5.984-10.073-7.68-12.887
			c-1.46-2.422-3.378-4.422-7.673-4.422h-2.654v16.018c0,3.874,1.23,5.354,6.997,5.429v5.429H6.853v-5.429
			c5.692-0.074,6.826-1.365,6.826-5.343V33.453c-4.169,0.653-6.875,2.955-8.447,5.429l-4.431-0.949l1.96-10.42
			c8.1-1.689,17.619-3.54,30.386-3.54c13.707,0,25.925,5.21,25.925,17.66c0,10.142-5.762,14.154-11.511,16.12v0.077
			c1.604,0.349,3.676,2.462,5.378,4.909c2.823,4.062,4.767,6.797,6.562,9.303c3.833,5.352,7.168,9.912,9.725,9.912
			c2.265,0,3.414-0.94,3.414-5.003V40.855c0-4.035-0.753-5.341-6.23-5.341v-5.342h43.097l2.305,17.833h-4.948
			c-1.777-7.75-4.932-10.593-8.871-10.593h-11.53v16.796h3.081c3.442,0,5.336-0.939,5.974-7.149h4.862v21.452h-5.031
			c-0.521-6.248-1.97-6.892-5.89-6.892h-2.996v17.233c0,1.013,0.249,1.286,1.711,1.286h12.114c4.352,0,7.123-1.793,10.324-10.68
			h3.24c-0.944-3.517-1.534-6.441-1.534-9.907c0-17.402,10.085-31.102,30.204-31.102c4.867,0,10.739,2.843,12.716,2.843
			c1.536,0,2.347-0.615,2.899-1.378h3.327l2.22,18.005h-4.948c-2.688-8.098-6.755-12.579-16.298-12.579
			c-11.583,0-15.53,9.325-15.53,22.913c0,14.892,5.502,23.952,14.847,23.952c9.07,0,10.923-2.714,10.923-6.721v-8.354
			c0-4.793-0.693-5.37-6.314-5.514v-5.343h26.875V61.619L173.236,61.619z M172.642,61.099v-4.306h-25.684v4.306
			c5.475,0.147,6.315,1.025,6.315,6.034v8.354c0,4.476-2.426,7.235-11.521,7.235c-9.82,0-15.358-9.513-15.358-24.467
			c0-13.67,3.997-23.602,16.042-23.602c9.822,0,14.207,4.79,16.81,12.663h3.752l-2.046-16.796h-2.559
			c-0.622,0.735-1.671,1.375-3.157,1.375c-1.977,0-7.923-2.928-12.716-2.928c-19.562,0-29.605,13.455-29.605,30.584
			c0,3.473,0.547,7.127,1.706,10.42h-3.584c-3.108,8.593-5.72,10.771-10.751,10.771H87.657c-1.453,0-1.792-0.45-1.792-1.547V61.015
			h3.592c4.383,0,5.957,0.972,6.484,6.979h3.754V47.66H96.11c-0.646,5.987-2.88,7.152-6.568,7.152h-3.677V36.808h12.296
			c4.21,0,7.526,3.201,9.216,10.508h3.665l-2.132-16.626H67.093v4.221c5.404,0,6.146,1.75,6.146,5.945v36.096
			c0,4.263-1.05,5.605-4.099,5.605c-2.977,0-6.754-5.466-10.149-10.171c-1.875-2.597-4.073-5.669-6.563-9.214
			c-1.837-2.617-3.587-4.501-6.487-5.342l0.014-0.077c6.933-2.305,12.436-6.583,12.436-16.12c0-11.791-11.465-17.059-25.242-17.059
			c-12.26,0-21.438,1.676-29.875,3.368l-1.705,9.562l3.413,0.689c1.4-2.208,4.022-4.77,9.299-5.516v44.102
			c0,4.146-1.207,5.799-6.828,5.943v4.397h26.876v-4.397c-5.473-0.145-7.08-1.885-7.08-5.943V60.153h0.085h3.166
			c4.804,0,6.836,2.333,8.27,4.771c1.607,2.73,3.975,6.745,7.594,12.89c4.172,7.08,7.542,11.031,15.527,11.031
			c5.077,0,8.42-0.871,10.924-1.726h39.332l2.562-16.37h0.085c4.134,10.839,14.396,17.487,28.242,17.487
			c5.785,0,9.423-1.071,13.141-2.24c3.341-1.045,6.34-2.265,9.899-2.41V67.133C166.072,62.154,167.166,61.177,172.642,61.099
			L172.642,61.099z"/>
		<path fill="#FFFFFF" d="M336.554,71.781l-2.132,13.699h-42.151v-1.121c5.002-0.073,6.228-3.188,6.228-7.581V40.855
			c0-4.409-0.899-7.348-6.228-7.495v-1.034h38.832l2.045,13.526h-1.107c-1.389-5.998-4.647-10.511-10.152-10.511H307.97v21.02h5.125
			c4.372,0,7.145-1.661,7.768-7.148h0.939v17.315h-1.024c-0.505-5.484-2.87-7.067-7.767-7.067h-5.041v19.901
			c0,2.267,0.703,2.931,3.07,2.931h12.884c6.304,0,8.788-2.739,11.604-10.512H336.554L336.554,71.781z"/>
		<path fill="#FFFFFF" d="M288.687,45.765h-1.025c-1.329-6.661-4.538-10.423-11.432-10.423h-7.428v41.437
			c0,4.552,1.265,7.35,6.486,7.497v1.205h-22.271v-1.205c5.261-0.37,6.146-2.945,6.146-7.497V35.342h-6.996
			c-6.869,0-9.965,4.073-11.436,10.511h-1.194l2.048-13.526h44.967L288.687,45.765L288.687,45.765z"/>
		<path fill="#FFFFFF" d="M240.306,69.972c0,8.844-8.944,16.109-19.625,16.109c-8.822,0-13.813-2.754-16.638-2.754
			c-0.641,0-1.474,0.521-1.879,2.153h-0.853l-2.474-16.97h0.938c2.886,10.956,9.923,13.955,19.283,13.955
			c7.75,0,11.436-4.055,11.436-9.046c0-5.094-2.316-6.927-12.374-10.599c-2.337-0.851-4.573-1.654-6.998-2.584
			c-6.383-2.445-11.52-6.423-11.52-14.215c0-9.677,8.952-14.813,19.797-14.813c6.072,0,9.619,2.583,12.458,2.583
			c0.714,0,1.293-0.459,1.791-1.465h0.684l2.132,13.526h-1.022c-2.048-6.949-6.312-11.028-16.127-11.028
			c-6.489,0-11.008,3.488-11.008,7.925c0,3.65,2.674,6.053,5.889,7.32c3.663,1.449,7.723,2.901,11.52,4.396
			C234.8,58.046,240.306,62.056,240.306,69.972L240.306,69.972z"/>
		<path fill="#FFFFFF" d="M194.229,85.48h-22.271v-1.205c5.405-0.221,6.315-2.926,6.315-7.497V40.94c0-4.562-0.874-7.433-6.315-7.58
			v-1.034h22.271v1.034c-5.186,0.147-6.398,2.837-6.398,7.58v35.838c0,4.659,1.213,7.35,6.398,7.497V85.48L194.229,85.48z"/>
		<path fill="#FFFFFF" d="M171.106,59.461c-5.259,0.295-6.656,1.916-6.656,7.672v14.988c-2.747,0.15-6.146,1.495-8.789,2.327
			c-3.64,1.139-7.061,2.322-12.629,2.322c-17.955,0-28.668-11.401-28.668-27.219c0-16.339,9.505-28.947,28.156-28.947
			c4.877,0,9.892,2.756,12.972,2.756c2.077,0,2.753-0.452,3.411-1.293h0.685l1.875,13.698h-1.022
			c-2.22-6.951-7.245-12.574-18.004-12.574c-13.426,0-17.663,11.2-17.663,25.064c0,15.624,5.579,26.021,16.979,26.021
			c9.231,0,13.056-2.885,13.056-8.789v-8.354c0-5.752-1.14-7.672-6.398-7.672v-1.029h22.696V59.461L171.106,59.461z"/>
		<path fill="#FFFFFF" d="M397.815,86.252c-1.793,0.868-3.991,1.643-8.701,1.643c-6.788,0-9.666-5.117-13.397-10.77
			c-3.367-5.116-5.82-8.787-7.759-11.803c-1.895-2.947-3.898-3.876-7.424-3.876h-4.187v15.332c0,4.73,1.968,7.407,6.742,7.497v1.205
			h-22.526v-1.205c4.839-0.088,6.312-2.945,6.312-7.497V41.113c0-4.617-1.52-7.66-6.312-7.752v-1.034h26.449
			c10.681,0,18.173,4.524,18.173,13.097c0,6.81-6.329,13.182-13.893,14.729v0.174c4.099,1.012,6.296,4.339,9.899,9.293
			c2.126,2.919,4.093,5.549,6.173,8.279c3.856,5.063,5.213,7.318,7.553,7.318c1.159,0,2.209-0.126,2.897-0.347V86.252
			L397.815,86.252z M375.29,46.457c0-7.578-4.254-11.115-11.178-11.115h-7.765v23.005h7.51
			C369.732,58.347,375.29,54.366,375.29,46.457L375.29,46.457z"/>
		<path fill="#FFFFFF" d="M112.998,71.781l-2.303,13.699H72.555c-2.672,1.13-5.929,1.986-10.752,1.986
			c-6.801,0-10.398-3.954-14.163-10.342c-3.463-5.884-6.085-10.408-7.859-13.48c-1.752-3.038-3.89-4.954-8.6-4.954h-5.556v18.088
			c0,4.413,1.75,7.276,7.083,7.497v1.205H8.901v-1.205c5.33-0.221,6.909-3.104,6.909-7.497V30.61
			c-7.233,1.104-9.347,2.728-11.516,5.602l-0.938-0.257l1.194-6.459c4.959-1.279,16.408-3.283,28.596-3.283
			c12.763,0,23.537,4.729,23.537,15.421c0,9.976-7.519,14.496-14.413,15.937v0.088c4.027,0.951,7.127,3.604,9.472,6.979
			c2.16,3.103,3.936,5.667,5.968,8.523c3.964,5.578,7.524,10.861,11.519,10.861c4.384,0,5.458-2.676,5.458-7.069V40.855
			c0-4.409-0.74-7.277-6.142-7.495v-1.034h38.832l2.047,13.526h-0.855c-1.451-6.326-4.901-10.511-10.407-10.511H84.244v21.02h5.298
			c4.368,0,7.4-1.661,8.021-7.148h0.599v17.315h-0.855c-0.503-5.484-2.952-7.067-7.849-7.067h-5.213v20.417
			c0,1.781,0.606,2.415,3.242,2.415h12.8c5.991,0,9.087-2.688,11.857-10.512H112.998L112.998,71.781z M46.104,42.666
			c0-9.5-6.233-13.439-12.958-13.439c-3.412,0-5.712,0.268-7.521,0.432v25.932H33.9C40.827,55.591,46.104,51.382,46.104,42.666
			L46.104,42.666z"/>
		<path fill="#FFFFFF" d="M373.358,46.457c0,7.178-4.52,10.336-10.173,10.336h-5.214V36.808h6.054
			C369.658,36.808,373.358,39.544,373.358,46.457L373.358,46.457z M372.77,46.457c0-6.375-3.464-9.045-8.744-9.045h-5.465v18.78
			h4.627C368.336,56.191,372.77,53.057,372.77,46.457L372.77,46.457z"/>
		<path fill="#FFFFFF" d="M44.52,42.666c0,7.616-4.908,11.373-10.636,11.373h-6.638V31.124c1.54-0.178,3.614-0.347,5.883-0.347
			C38.987,30.777,44.52,34.172,44.52,42.666L44.52,42.666z M43.84,42.666c0-7.761-5.104-11.2-10.711-11.2
			c-2.088,0-4.008,0.165-5.286,0.26v21.712h6.041C39.072,53.438,43.84,49.557,43.84,42.666L43.84,42.666z"/>
	</g>
	<g>
		<path fill="#FFFFFF" d="M97.337,20.364c1.097-0.116,1.809-0.311,2.133-0.587c0.326-0.275,0.488-0.973,0.488-2.094V4.412
			c0-1.059-0.159-1.75-0.48-2.076c-0.319-0.325-1.034-0.527-2.141-0.604V1.177h8.42v0.554c-1.097,0.059-1.833,0.238-2.206,0.539
			c-0.374,0.301-0.562,0.947-0.562,1.938v14.335c0,0.331,0.056,0.59,0.168,0.78c0.111,0.189,0.357,0.308,0.736,0.357
			c0.224,0.029,0.459,0.048,0.707,0.058s0.713,0.015,1.394,0.015c2.654,0,4.448-0.219,5.383-0.656
			c0.933-0.437,1.837-1.554,2.712-3.351h0.759l-1.459,5.172H97.337V20.364z"/>
		<path fill="#FFFFFF" d="M119.861,3.392c1.837-1.758,4.094-2.637,6.775-2.637c2.689,0,4.953,0.884,6.788,2.651
			c1.991,1.914,2.987,4.463,2.987,7.648c0,3.234-1.028,5.808-3.088,7.722c-1.846,1.709-4.075,2.564-6.688,2.564
			c-2.798,0-5.119-0.947-6.964-2.841c-1.875-1.933-2.812-4.414-2.812-7.445C116.861,7.869,117.86,5.314,119.861,3.392z
			 M122.093,18.012c1.236,1.5,2.752,2.251,4.552,2.251c1.76,0,3.265-0.731,4.514-2.193c1.249-1.461,1.874-3.799,1.874-7.015
			c0-3.253-0.632-5.604-1.896-7.051c-1.265-1.447-2.762-2.17-4.492-2.17c-1.79,0-3.305,0.75-4.544,2.251
			c-1.24,1.5-1.86,3.824-1.86,6.971C120.24,14.192,120.858,16.511,122.093,18.012z"/>
		<path fill="#FFFFFF" d="M140.188,14.916c0.505,1.34,1.096,2.409,1.775,3.205c1.182,1.389,2.651,2.083,4.406,2.083
			c0.951,0,1.773-0.301,2.466-0.903c0.694-0.602,1.04-1.442,1.04-2.521c0-0.971-0.348-1.816-1.046-2.535
			c-0.456-0.456-1.415-1.141-2.879-2.054l-2.545-1.588c-0.767-0.485-1.378-0.976-1.834-1.471c-0.845-0.942-1.267-1.981-1.267-3.118
			c0-1.505,0.499-2.759,1.5-3.759c1-1,2.326-1.5,3.978-1.5c0.679,0,1.498,0.167,2.454,0.502c0.957,0.335,1.503,0.503,1.639,0.503
			c0.37,0,0.625-0.087,0.766-0.262c0.141-0.175,0.25-0.423,0.327-0.743h0.612l0.655,6.352h-0.713
			c-0.486-1.914-1.266-3.249-2.338-4.006c-1.074-0.758-2.135-1.137-3.185-1.137c-0.814,0-1.527,0.24-2.134,0.721
			c-0.607,0.481-0.91,1.149-0.91,2.004c0,0.768,0.232,1.423,0.697,1.967c0.465,0.554,1.188,1.131,2.168,1.734l2.621,1.617
			c1.639,1.01,2.796,1.938,3.47,2.782c0.662,0.854,0.995,1.865,0.995,3.03c0,1.564-0.592,2.87-1.771,3.919s-2.688,1.573-4.523,1.573
			c-0.923,0-1.888-0.174-2.892-0.524c-1.005-0.35-1.581-0.524-1.727-0.524c-0.35,0-0.585,0.106-0.707,0.32
			c-0.121,0.213-0.201,0.441-0.24,0.685h-0.655l-0.89-6.353H140.188z"/>
		<path fill="#FFFFFF" d="M162.618,20.918v-0.554c0.768-0.087,1.344-0.375,1.728-0.866c0.383-0.491,1.04-1.834,1.972-4.029
			l6.216-14.642h0.595l7.434,16.915c0.495,1.121,0.892,1.813,1.188,2.079s0.794,0.447,1.494,0.543v0.554h-7.588v-0.554
			c0.872-0.078,1.433-0.172,1.686-0.283c0.253-0.111,0.379-0.384,0.379-0.819c0-0.145-0.049-0.401-0.146-0.768
			c-0.097-0.368-0.232-0.754-0.408-1.16l-1.193-2.871h-7.864c-0.773,1.953-1.237,3.144-1.388,3.573
			c-0.15,0.431-0.226,0.771-0.226,1.022c0,0.503,0.204,0.85,0.611,1.044c0.252,0.116,0.729,0.203,1.426,0.261v0.554H162.618z
			 M175.468,13.254l-3.419-8.216l-3.436,8.216H175.468z"/>
		<path fill="#FFFFFF" d="M184.807,20.364c1.233-0.126,2.025-0.404,2.375-0.837c0.35-0.432,0.524-1.434,0.524-3.006V3.375
			l-0.408-0.48c-0.437-0.515-0.809-0.832-1.114-0.954c-0.307-0.121-0.765-0.191-1.377-0.211V1.177h5.091l11.517,14.276V5.538
			c0-1.631-0.242-2.693-0.728-3.185c-0.32-0.318-1.029-0.526-2.127-0.623V1.177h7.008v0.554c-1.137,0.116-1.895,0.393-2.273,0.831
			c-0.378,0.437-0.567,1.437-0.567,3.001v15.706h-0.51L189.018,4.907v11.615c0,1.631,0.237,2.693,0.713,3.188
			c0.311,0.32,1.005,0.539,2.084,0.655v0.554h-7.008V20.364z"/>
		<path fill="#FFFFFF" d="M221.217,1.309c1.117,0.32,1.758,0.481,1.923,0.481c0.428,0,0.731-0.083,0.911-0.248
			s0.333-0.403,0.459-0.714h0.655l0.234,6.279h-0.686c-0.612-1.447-1.244-2.525-1.895-3.235c-1.175-1.243-2.705-1.865-4.589-1.865
			c-1.913,0-3.597,0.727-5.048,2.178c-1.453,1.452-2.179,3.844-2.179,7.175c0,2.749,0.724,4.895,2.172,6.439
			c1.446,1.544,3.233,2.317,5.361,2.317c0.358,0,0.78-0.034,1.268-0.102c0.485-0.067,0.946-0.174,1.383-0.32
			c0.71-0.232,1.151-0.433,1.326-0.603c0.174-0.17,0.263-0.42,0.263-0.749V13.59c0-1.152-0.163-1.87-0.488-2.153
			c-0.326-0.284-1.037-0.459-2.135-0.528v-0.554h7.605v0.554c-0.738,0.049-1.229,0.17-1.473,0.364
			c-0.407,0.311-0.611,0.952-0.611,1.923v5.871c0,0.35-0.857,0.816-2.571,1.399s-3.363,0.874-4.945,0.874
			c-2.914,0-5.372-0.85-7.373-2.55c-2.204-1.874-3.307-4.39-3.307-7.546c0-2.778,0.88-5.157,2.637-7.139
			c1.934-2.185,4.497-3.278,7.693-3.278C218.963,0.828,220.1,0.988,221.217,1.309z"/>
		<path fill="#FFFFFF" d="M229.393,20.364c1.098-0.116,1.81-0.311,2.134-0.587c0.326-0.275,0.488-0.973,0.488-2.094V4.412
			c0-1.059-0.159-1.75-0.48-2.076c-0.319-0.325-1.034-0.527-2.142-0.604V1.177h15.852l0.102,4.269h-0.758
			c-0.253-1.315-0.632-2.165-1.136-2.552c-0.506-0.387-1.633-0.58-3.38-0.58h-4.062c-0.438,0-0.708,0.07-0.811,0.211
			c-0.102,0.141-0.153,0.406-0.153,0.794v6.658h4.604c1.272,0,2.083-0.188,2.433-0.565c0.351-0.377,0.631-1.14,0.846-2.291h0.698
			v6.891h-0.698c-0.225-1.155-0.51-1.92-0.86-2.294c-0.35-0.374-1.155-0.561-2.418-0.561h-4.604v7.386
			c0,0.593,0.187,0.942,0.562,1.049c0.374,0.107,1.495,0.161,3.362,0.161c2.023,0,3.517-0.221,4.479-0.663
			c0.963-0.442,1.829-1.513,2.597-3.213h0.83l-1.354,5.041h-16.129V20.364z"/>
		<path fill="#FFFFFF" d="M248.365,20.364c1.097-0.116,1.808-0.311,2.134-0.587c0.325-0.275,0.488-0.973,0.488-2.094V4.412
			c0-1.059-0.161-1.75-0.48-2.076c-0.32-0.325-1.035-0.527-2.142-0.604V1.177h8.42v0.554c-1.097,0.059-1.833,0.238-2.206,0.539
			c-0.374,0.301-0.562,0.947-0.562,1.938v14.335c0,0.331,0.056,0.59,0.168,0.78c0.111,0.189,0.357,0.308,0.736,0.357
			c0.224,0.029,0.459,0.048,0.707,0.058s0.713,0.015,1.394,0.015c2.654,0,4.448-0.219,5.383-0.656
			c0.933-0.437,1.837-1.554,2.712-3.351h0.759l-1.458,5.172h-16.053V20.364z"/>
		<path fill="#FFFFFF" d="M267.336,20.364c1.097-0.116,1.809-0.311,2.134-0.587c0.325-0.275,0.488-0.973,0.488-2.094V4.412
			c0-1.059-0.161-1.75-0.48-2.076c-0.319-0.325-1.035-0.527-2.142-0.604V1.177h15.852l0.102,4.269h-0.758
			c-0.253-1.315-0.632-2.165-1.137-2.552c-0.505-0.387-1.632-0.58-3.38-0.58h-4.062c-0.438,0-0.707,0.07-0.81,0.211
			c-0.104,0.141-0.153,0.406-0.153,0.794v6.658h4.604c1.272,0,2.083-0.188,2.432-0.565c0.351-0.377,0.632-1.14,0.846-2.291h0.699
			v6.891h-0.699c-0.224-1.155-0.51-1.92-0.859-2.294s-1.155-0.561-2.418-0.561h-4.604v7.386c0,0.593,0.187,0.942,0.561,1.049
			c0.375,0.107,1.496,0.161,3.363,0.161c2.023,0,3.517-0.221,4.479-0.663c0.962-0.442,1.829-1.513,2.595-3.213h0.832l-1.355,5.041
			h-16.128V20.364z"/>
		<path fill="#FFFFFF" d="M287.896,14.916c0.504,1.34,1.096,2.409,1.774,3.205c1.183,1.389,2.651,2.083,4.407,2.083
			c0.951,0,1.772-0.301,2.466-0.903c0.694-0.602,1.04-1.442,1.04-2.521c0-0.971-0.349-1.816-1.047-2.535
			c-0.455-0.456-1.415-1.141-2.878-2.054l-2.546-1.588c-0.766-0.485-1.377-0.976-1.833-1.471c-0.845-0.942-1.268-1.981-1.268-3.118
			c0-1.505,0.5-2.759,1.501-3.759c1-1,2.325-1.5,3.977-1.5c0.68,0,1.498,0.167,2.455,0.502c0.956,0.335,1.503,0.503,1.639,0.503
			c0.369,0,0.624-0.087,0.765-0.262c0.142-0.175,0.251-0.423,0.328-0.743h0.612l0.655,6.352h-0.714
			c-0.485-1.914-1.266-3.249-2.338-4.006c-1.074-0.758-2.134-1.137-3.184-1.137c-0.815,0-1.528,0.24-2.135,0.721
			c-0.606,0.481-0.91,1.149-0.91,2.004c0,0.768,0.233,1.423,0.698,1.967c0.465,0.554,1.187,1.131,2.168,1.734l2.62,1.617
			c1.64,1.01,2.796,1.938,3.47,2.782c0.663,0.854,0.995,1.865,0.995,3.03c0,1.564-0.592,2.87-1.771,3.919
			c-1.181,1.049-2.688,1.573-4.523,1.573c-0.923,0-1.888-0.174-2.893-0.524c-1.005-0.35-1.581-0.524-1.727-0.524
			c-0.349,0-0.585,0.106-0.706,0.32c-0.122,0.213-0.201,0.441-0.24,0.685h-0.656l-0.889-6.353H287.896z"/>
	</g>
</g>
</svg>
