<?xml version="1.0" encoding="utf-8"?>
<!-- Generator: Adobe Illustrator 16.0.0, SVG Export Plug-In . SVG Version: 6.00 Build 0)  -->
<!DOCTYPE svg PUBLIC "-//W3C//DTD SVG 1.1//EN" "http://www.w3.org/Graphics/SVG/1.1/DTD/svg11.dtd">
<svg version="1.1" id="Layer_1" xmlns="http://www.w3.org/2000/svg" xmlns:xlink="http://www.w3.org/1999/xlink" x="0px" y="0px"
	 width="776.721px" height="170.374px" viewBox="0 0 776.721 170.374" enable-background="new 0 0 776.721 170.374"
	 xml:space="preserve">
<path d="M655.357,135.68h-2.003h-1.119l-0.383,1.053c-5.544,15.302-10.099,19.493-21.186,19.493H605.48
	c-3.746,0-4.405-0.618-4.405-4.129v-37.307h8.258c9.309,0,12.739,3.118,13.59,12.362l0.135,1.449h1.456h2.003h1.599v-1.598V93.154
	v-1.598h-1.599h-1.836h-1.428l-0.161,1.417c-1.01,8.92-4.947,12.561-13.591,12.561h-8.426V67.636h25.608
	c12.027,0,16.622,12.1,18.291,19.309l0.287,1.237h1.269h2.17h1.858l-0.279-1.836l-4.002-26.442l-0.204-1.357h-1.375h-75.914h-1.597
	v1.598v2.02v1.554l1.553,0.044c8.978,0.249,10.621,4.592,10.621,13.056v70.231c0,9.404-2.972,13.108-10.601,13.222l-1.573,0.022
	v1.575v2.188v1.597h1.597h82.406h1.369l0.21-1.351l4.166-26.778l0.286-1.844H655.357z"/>
<path d="M563.357,86.165l-4.172-26.272l-0.214-1.347h-1.364h-87.91h-1.375l-0.208,1.357l-4.002,26.441l-0.276,1.837h1.857h2.333
	h1.273l0.285-1.241c3.051-13.35,9.465-19.303,20.8-19.303h12.078v79.41c0,8.521-1.522,12.428-10.528,13.058l-1.485,0.104v1.49v2.355
	v1.597h1.598h43.541h1.598v-1.597V161.7v-1.554l-1.551-0.044c-8.218-0.232-11.13-3.648-11.13-13.055v-79.41h12.921
	c11.896,0,18.111,5.71,20.783,19.09l0.259,1.286h1.309h2.003h1.87L563.357,86.165z"/>
<path d="M438.193,101.936c-3.676-1.445-7.52-2.887-11.236-4.282c-3.768-1.413-7.668-2.877-11.283-4.305
	c-3.922-1.55-10.497-5.274-10.497-12.831c0-7.921,8.564-13.893,19.919-13.893c16.805,0,25.774,6.103,29.99,20.41l0.34,1.146h1.195h2
	h1.871l-0.291-1.848l-4.17-26.438l-0.213-1.351h-1.365h-1.335h-0.993l-0.438,0.889c-0.978,1.973-1.774,1.973-2.072,1.973
	c-1.991,0-4.391-0.806-7.171-1.737c-4.397-1.477-9.871-3.313-17.182-3.313c-24.104,0-40.302,12.282-40.302,30.564
	c0,13.626,7.702,23.204,23.547,29.28c3.885,1.491,7.446,2.784,11.214,4.155l2.491,0.906c20.257,7.393,23.136,10.738,23.136,19.217
	c0,9.921-7.95,16.083-20.752,16.083c-20.525,0-31.338-7.802-36.156-26.09l-0.312-1.192h-1.233h-1.835h-1.848l0.267,1.83
	l4.836,33.175l0.2,1.368h1.383h1.668h1.248l0.305-1.212c0.513-2.069,1.436-2.995,2.119-2.995c1.779,0,4.247,0.681,7.375,1.545
	c5.873,1.622,13.919,3.844,25.15,3.844c22.037,0,39.966-14.847,39.966-33.095C467.728,117.001,455.92,108.921,438.193,101.936z"/>
<path d="M376.05,58.543h-43.536h-1.599v1.599v2.021v1.556l1.556,0.041c9.174,0.249,10.789,4.463,10.789,13.225v70.062
	c0,8.724-1.561,12.68-10.811,13.058l-1.534,0.06v1.536v2.355v1.599h1.599h43.536h1.6v-1.599V161.7v-1.554l-1.554-0.042
	c-8.192-0.235-10.956-3.528-10.956-13.058V76.984c0-9.655,2.764-12.991,10.956-13.225l1.554-0.043v-1.554v-2.021v-1.599H376.05z"/>
<path d="M330.847,109.577h-44.373h-1.598v1.598v2.018v1.598h1.598c8.873,0,10.914,2.505,10.914,13.396v16.333
	c0,7.706-2.844,15.583-23.922,15.583c-20.083,0-31.601-17.958-31.601-49.267c0-31.457,11.081-47.408,32.934-47.408
	c17.62,0,28.632,7.678,33.673,23.474l0.355,1.11h1.168h2.002h1.833l-0.249-1.813l-3.67-26.777l-0.19-1.381h-1.394h-1.335h-0.781
	l-0.479,0.613c-0.93,1.19-1.758,1.914-5.412,1.914c-2.423,0-5.81-1.052-9.398-2.163c-4.875-1.511-10.404-3.224-15.958-3.224
	c-17.74,0-32.394,5.823-42.379,16.839c-9.333,10.297-14.264,24.592-14.264,41.346c0,15.897,5.303,29.504,15.339,39.345
	c10.319,10.121,24.947,15.471,42.305,15.471c10.515,0,17.355-2.157,23.965-4.239l1.204-0.381c1.111-0.349,2.289-0.743,3.506-1.149
	c4.346-1.455,9.271-3.104,13.282-3.327l1.509-0.085v-1.511v-29.302c0-10.372,2.152-12.876,11.504-13.398l1.509-0.084v-1.512v-2.018
	v-1.598H330.847z"/>
<path d="M774.638,161.344c-1.178,0.375-3.114,0.6-5.183,0.6c-3.195,0-5.591-3.188-10.841-10.168
	c-0.815-1.081-1.694-2.25-2.649-3.506c-4.312-5.659-8.14-10.795-12.049-16.164l-1.244-1.715
	c-5.127-7.069-9.102-12.554-14.717-15.449c13.803-4.587,24.072-16.718,24.072-29.195c0-16.779-14.224-27.2-37.123-27.2h-51.707
	h-1.599v1.598v2.02v1.567l1.567,0.03c7.554,0.147,10.776,4.202,10.776,13.561v69.727c0,9.134-3.123,12.916-10.773,13.054
	l-1.57,0.027v1.569v2.357v1.597h1.599h44.037h1.598v-1.597v-2.357v-1.569l-1.567-0.027c-8.029-0.15-11.612-4.177-11.612-13.054
	v-28.381h6.586c6.557,0,9.88,1.729,13.166,6.845c2.625,4.086,5.689,8.72,9.569,14.588c1.714,2.595,3.577,5.411,5.614,8.502
	l1.396,2.127c6.609,10.104,12.85,19.645,26.128,19.645c8.928,0,13.536-1.348,17.709-3.371l0.899-0.436v-1.002v-2.698v-2.188
	L774.638,161.344z M729.488,87.768c0,14.95-10.423,21.644-20.754,21.644h-13.081V67.636h13.581
	C722.484,67.636,729.488,74.599,729.488,87.768z"/>
<path d="M216.184,135.679h-1.67h-1.129l-0.378,1.063c-5.161,14.567-10.63,19.484-21.679,19.484h-25.021
	c-4.738,0-4.738-0.915-4.738-3.118v-38.318h8.592c9.434,0,12.904,3.119,13.755,12.36l0.134,1.449h1.457h1.67h1.597v-1.597V93.151
	v-1.597h-1.597h-1.167h-1.428l-0.161,1.416c-0.998,8.805-5.213,12.563-14.095,12.563h-8.757V67.636h25.607
	c12.493,0,17.135,12.097,18.792,19.306l0.283,1.24h1.274h1.668h1.858l-0.278-1.838l-4.001-26.439l-0.204-1.357h-1.376h-75.917
	h-1.598v1.598v2.018v1.534l1.532,0.063c8.967,0.365,10.48,4.322,10.48,13.057v70.567c0,9.024-2.375,12.223-9.08,12.223
	c-6.63,0-13.208-9.274-20.17-19.095l-1.041-1.468c-3.512-4.934-6.621-9.407-10.22-14.589l-1.436-2.062
	c-4.154-5.977-9.03-10.21-14.551-12.641c9.9-3.152,24.495-11.228,24.495-31.417c0-19.583-18.245-31.747-47.615-31.747
	c-24.653,0-46.986,4.063-56.297,6.466l-0.989,0.256L2.6,54.314L0.265,66.942L0,68.381l1.412,0.392l1.833,0.507l1.048,0.289
	l0.654-0.866c3.476-4.604,6.789-7.843,19.643-10.04v88.385c0,8.922-3.471,12.705-11.981,13.055l-1.532,0.064v1.534v2.353v1.598
	h1.597h46.542h1.597v-1.598v-2.353v-1.534l-1.532-0.064c-8.63-0.354-12.314-4.26-12.314-13.055V113.28h9.262
	c8.578,0,12.264,3.401,15.43,8.884c3.314,5.739,8.512,14.713,15.373,26.37c7.642,12.968,15.167,21.005,29.067,21.005
	c8.164,0,14.957-1.235,21.342-3.888h74.238h1.351l0.226-1.333l4.505-26.776l0.312-1.862H216.184z M83.807,80.355
	c0,14.819-8.32,23.668-22.256,23.668H46.967V56.384c3.293-0.314,7.39-0.706,13.104-0.706C71.545,55.678,83.807,62.161,83.807,80.355
	z"/>
<g>
	<path d="M181.879,39.995c2.238-0.235,3.689-0.635,4.354-1.197c0.664-0.561,0.996-1.985,0.996-4.271V7.457
		c0-2.158-0.328-3.57-0.981-4.233c-0.652-0.664-2.11-1.074-4.368-1.232v-1.13h17.176v1.13c-2.238,0.119-3.74,0.483-4.502,1.099
		c-0.762,0.614-1.145,1.932-1.145,3.953v29.238c0,0.675,0.115,1.203,0.343,1.589c0.229,0.387,0.729,0.63,1.503,0.729
		c0.455,0.059,0.936,0.098,1.443,0.117c0.506,0.021,1.453,0.031,2.84,0.031c5.414,0,9.074-0.445,10.979-1.339
		c1.904-0.891,3.748-3.169,5.533-6.834h1.547l-2.975,10.55h-32.742V39.995z"/>
	<path d="M227.822,5.377C231.567,1.794,236.173,0,241.641,0c5.486,0,10.104,1.804,13.847,5.408c4.062,3.902,6.093,9.102,6.093,15.6
		c0,6.597-2.1,11.846-6.3,15.749c-3.765,3.485-8.312,5.23-13.64,5.23c-5.705,0-10.439-1.933-14.203-5.794
		c-3.824-3.942-5.734-9.005-5.734-15.186C221.703,14.51,223.742,9.3,227.822,5.377z M232.375,35.197
		c2.519,3.06,5.611,4.591,9.281,4.591c3.59,0,6.658-1.492,9.206-4.473c2.548-2.981,3.823-7.75,3.823-14.308
		c0-6.635-1.29-11.43-3.867-14.382c-2.58-2.951-5.633-4.428-9.162-4.428c-3.65,0-6.738,1.53-9.268,4.591
		c-2.528,3.062-3.793,7.801-3.793,14.219C228.596,27.405,229.855,32.137,232.375,35.197z"/>
	<path d="M269.281,28.883c1.028,2.732,2.234,4.913,3.619,6.537c2.412,2.834,5.409,4.249,8.989,4.249c1.938,0,3.616-0.613,5.03-1.843
		c1.414-1.229,2.12-2.94,2.12-5.142c0-1.979-0.71-3.704-2.134-5.168c-0.93-0.933-2.887-2.328-5.873-4.19l-5.19-3.24
		c-1.562-0.988-2.809-1.989-3.739-3c-1.724-1.921-2.584-4.042-2.584-6.358c0-3.071,1.019-5.628,3.06-7.667
		c2.04-2.04,4.744-3.061,8.112-3.061c1.386,0,3.055,0.343,5.007,1.024c1.951,0.685,3.065,1.026,3.342,1.026
		c0.753,0,1.273-0.179,1.561-0.536c0.286-0.356,0.511-0.862,0.669-1.515h1.248l1.337,12.955h-1.456
		c-0.991-3.903-2.58-6.626-4.769-8.172c-2.189-1.545-4.353-2.318-6.493-2.318c-1.663,0-3.115,0.491-4.354,1.471
		c-1.236,0.981-1.856,2.345-1.856,4.088c0,1.564,0.475,2.901,1.423,4.012c0.949,1.128,2.423,2.307,4.422,3.534l5.346,3.3
		c3.344,2.061,5.703,3.952,7.075,5.674c1.354,1.744,2.03,3.805,2.03,6.182c0,3.189-1.205,5.854-3.611,7.992
		c-2.406,2.141-5.482,3.21-9.227,3.21c-1.883,0-3.849-0.357-5.898-1.069c-2.051-0.713-3.225-1.069-3.521-1.069
		c-0.713,0-1.193,0.217-1.441,0.653c-0.248,0.436-0.411,0.9-0.491,1.396h-1.336l-1.813-12.954H269.281z"/>
	<path d="M315.029,41.125v-1.13c1.564-0.177,2.738-0.765,3.521-1.766c0.782-1.001,2.123-3.74,4.023-8.217l12.677-29.864h1.213
		l15.162,34.499c1.011,2.285,1.817,3.699,2.421,4.24c0.604,0.541,1.62,0.911,3.047,1.107v1.13h-15.477v-1.13
		c1.779-0.157,2.925-0.35,3.439-0.577c0.516-0.226,0.773-0.783,0.773-1.67c0-0.297-0.1-0.818-0.299-1.568
		c-0.197-0.748-0.475-1.535-0.831-2.363l-2.436-5.856h-16.039c-1.579,3.982-2.523,6.413-2.83,7.291
		c-0.308,0.877-0.462,1.571-0.462,2.083c0,1.025,0.416,1.734,1.248,2.129c0.514,0.238,1.483,0.414,2.906,0.532v1.13H315.029z
		 M341.237,25.495l-6.974-16.76l-7.006,16.76H341.237z"/>
	<path d="M360.284,39.995c2.516-0.258,4.131-0.825,4.844-1.707c0.714-0.881,1.069-2.924,1.069-6.132V5.345l-0.831-0.979
		c-0.893-1.05-1.65-1.697-2.273-1.945c-0.624-0.246-1.56-0.39-2.809-0.43v-1.13h10.383l23.492,29.117V9.756
		c0-3.327-0.496-5.492-1.486-6.495c-0.652-0.648-2.1-1.072-4.338-1.27v-1.13h14.293v1.13c-2.318,0.236-3.863,0.802-4.637,1.693
		c-0.771,0.891-1.156,2.932-1.156,6.12v32.032h-1.041L368.872,8.468v23.69c0,3.325,0.484,5.492,1.456,6.501
		c0.633,0.654,2.05,1.099,4.249,1.336v1.13h-14.293V39.995z"/>
	<path d="M434.547,1.129c2.277,0.655,3.584,0.981,3.92,0.981c0.873,0,1.492-0.17,1.859-0.506c0.365-0.336,0.678-0.821,0.936-1.456
		h1.338l0.475,12.807h-1.396c-1.248-2.951-2.537-5.15-3.863-6.597c-2.396-2.535-5.518-3.804-9.359-3.804
		c-3.904,0-7.336,1.482-10.297,4.443c-2.961,2.96-4.441,7.84-4.441,14.633c0,5.608,1.475,9.984,4.428,13.134
		c2.951,3.149,6.596,4.725,10.934,4.725c0.732,0,1.596-0.068,2.586-0.207s1.93-0.355,2.822-0.652
		c1.445-0.474,2.348-0.884,2.705-1.23c0.355-0.346,0.535-0.854,0.535-1.526v-9.695c0-2.349-0.334-3.813-0.996-4.391
		c-0.664-0.578-2.115-0.937-4.354-1.075v-1.13h15.51v1.13c-1.504,0.098-2.506,0.346-3,0.741c-0.832,0.635-1.248,1.942-1.248,3.923
		v11.975c0,0.714-1.75,1.664-5.244,2.853c-3.498,1.188-6.861,1.784-10.088,1.784c-5.943,0-10.957-1.735-15.037-5.201
		c-4.496-3.823-6.744-8.953-6.744-15.394c0-5.663,1.793-10.519,5.379-14.558c3.941-4.458,9.172-6.687,15.689-6.687
		C429.95,0.148,432.268,0.477,434.547,1.129z"/>
	<path d="M451.221,39.995c2.238-0.235,3.689-0.635,4.354-1.197c0.664-0.561,0.996-1.985,0.996-4.271V7.457
		c0-2.158-0.328-3.57-0.98-4.233c-0.652-0.664-2.111-1.074-4.369-1.232v-1.13h32.332l0.207,8.705h-1.547
		c-0.516-2.68-1.287-4.414-2.316-5.203s-3.328-1.184-6.895-1.184h-8.285c-0.893,0-1.443,0.144-1.652,0.43
		c-0.209,0.287-0.314,0.828-0.314,1.621v13.578h9.391c2.594,0,4.25-0.383,4.961-1.152c0.715-0.77,1.289-2.324,1.727-4.672h1.424
		V27.04h-1.424c-0.457-2.357-1.041-3.917-1.756-4.681c-0.711-0.761-2.357-1.143-4.932-1.143h-9.391v15.064
		c0,1.209,0.383,1.922,1.146,2.139c0.764,0.219,3.051,0.328,6.859,0.328c4.127,0,7.172-0.452,9.137-1.352
		c1.963-0.902,3.729-3.087,5.293-6.555h1.693l-2.764,10.283h-32.895V39.995z"/>
	<path d="M489.917,39.995c2.238-0.235,3.689-0.635,4.354-1.197c0.664-0.561,0.996-1.985,0.996-4.271V7.457
		c0-2.158-0.328-3.57-0.982-4.233c-0.65-0.664-2.109-1.074-4.367-1.232v-1.13h17.176v1.13c-2.238,0.119-3.74,0.483-4.502,1.099
		c-0.762,0.614-1.145,1.932-1.145,3.953v29.238c0,0.675,0.115,1.203,0.344,1.589c0.227,0.387,0.729,0.63,1.502,0.729
		c0.455,0.059,0.936,0.098,1.443,0.117c0.506,0.021,1.453,0.031,2.84,0.031c5.414,0,9.074-0.445,10.979-1.339
		c1.904-0.891,3.748-3.169,5.533-6.834h1.547l-2.975,10.55h-32.742V39.995z"/>
	<path d="M528.61,39.995c2.238-0.235,3.689-0.635,4.354-1.197c0.664-0.561,0.996-1.985,0.996-4.271V7.457
		c0-2.158-0.328-3.57-0.982-4.233c-0.65-0.664-2.109-1.074-4.367-1.232v-1.13h32.33l0.207,8.705h-1.545
		c-0.516-2.68-1.287-4.414-2.316-5.203c-1.031-0.789-3.33-1.184-6.895-1.184h-8.285c-0.893,0-1.445,0.144-1.652,0.43
		c-0.209,0.287-0.314,0.828-0.314,1.621v13.578h9.391c2.594,0,4.25-0.383,4.961-1.152c0.715-0.77,1.289-2.324,1.725-4.672h1.426
		V27.04h-1.426c-0.455-2.357-1.039-3.917-1.754-4.681c-0.713-0.761-2.357-1.143-4.932-1.143h-9.391v15.064
		c0,1.209,0.383,1.922,1.146,2.139c0.764,0.219,3.051,0.328,6.859,0.328c4.125,0,7.172-0.452,9.135-1.352
		c1.963-0.902,3.729-3.087,5.295-6.555h1.693l-2.764,10.283H528.61V39.995z"/>
	<path d="M570.543,28.883c1.029,2.732,2.234,4.913,3.619,6.537c2.412,2.834,5.408,4.249,8.988,4.249
		c1.939,0,3.617-0.613,5.031-1.843c1.414-1.229,2.121-2.94,2.121-5.142c0-1.979-0.711-3.704-2.135-5.168
		c-0.93-0.933-2.887-2.328-5.873-4.19l-5.189-3.24c-1.562-0.988-2.811-1.989-3.74-3c-1.725-1.921-2.584-4.042-2.584-6.358
		c0-3.071,1.018-5.628,3.059-7.667C575.881,1.021,578.584,0,581.954,0c1.385,0,3.055,0.343,5.006,1.024
		c1.953,0.685,3.066,1.026,3.344,1.026c0.752,0,1.271-0.179,1.559-0.536c0.287-0.356,0.512-0.862,0.67-1.515h1.248l1.336,12.955
		h-1.455c-0.99-3.903-2.58-6.626-4.77-8.172c-2.189-1.545-4.352-2.318-6.492-2.318c-1.664,0-3.115,0.491-4.354,1.471
		c-1.236,0.981-1.857,2.345-1.857,4.088c0,1.564,0.475,2.901,1.424,4.012c0.949,1.128,2.424,2.307,4.422,3.534l5.346,3.3
		c3.344,2.061,5.703,3.952,7.076,5.674c1.352,1.744,2.029,3.805,2.029,6.182c0,3.189-1.205,5.854-3.611,7.992
		c-2.406,2.141-5.482,3.21-9.227,3.21c-1.883,0-3.85-0.357-5.898-1.069c-2.051-0.713-3.225-1.069-3.521-1.069
		c-0.711,0-1.193,0.217-1.441,0.653c-0.246,0.436-0.41,0.9-0.49,1.396h-1.336l-1.814-12.954H570.543z"/>
</g>
</svg>
