<?xml version="1.0" encoding="utf-8"?>
<!-- Generator: Adobe Illustrator 16.0.0, SVG Export Plug-In . SVG Version: 6.00 Build 0)  -->
<!DOCTYPE svg PUBLIC "-//W3C//DTD SVG 1.1//EN" "http://www.w3.org/Graphics/SVG/1.1/DTD/svg11.dtd">
<svg version="1.1" xmlns="http://www.w3.org/2000/svg" xmlns:xlink="http://www.w3.org/1999/xlink" x="0px" y="0px"
	 width="487.447px" height="108.988px" viewBox="0 0 487.447 108.988" enable-background="new 0 0 487.447 108.988"
	 xml:space="preserve">
<g id="Layer_2">
</g>
<g id="Layer_1">
	<g>
		<path fill="#FFFFFF" d="M487.447,105.928c-3.039,1.677-5.828,3.06-12.719,3.06c-10.156,0-13.386-5.846-19.07-14.529
			c-3.895-5.941-7.304-11.055-9.067-13.677c-1.69-2.515-3.885-4.001-7.923-4.001h-1.466v16.102c0,4.396,1.78,6.63,8.13,6.63v6.633
			h-32.731v-6.633c6.105,0,7.716-1.773,7.716-6.63V49.307c0-4.816-1.584-6.943-7.822-6.943v-6.423h34.922
			c14,0,25.016,6.196,25.016,18.633c0,8.567-6.103,16.315-13.954,18.502v0.124c2.478,0.607,5.784,5.617,8.507,9.476
			c2.651,3.754,4.716,6.572,7.504,10.43c2.502,3.467,5.117,7.352,8.06,7.352c1.757,0,3.747-0.381,4.899-0.738V105.928
			L487.447,105.928z M486.822,105.507v-4.84c-1.382,0.468-2.725,0.524-4.585,0.524c-3.046,0-5.284-3.383-8.384-7.668
			c-2.564-3.547-4.836-6.677-7.614-10.537c-3.42-4.757-5.694-8.761-9.528-9.89l0.013-0.124c9.194-2.608,14.979-10.136,14.979-18.399
			c0-11.934-10.668-18.002-24.287-18.002h-34.087v5.157c6.071,0.063,7.715,2.565,7.715,7.578v43.575
			c0,5.063-1.569,7.204-7.715,7.261v5.371h31.274v-5.371c-6.152-0.06-8.133-2.305-8.133-7.261v-16.84h1.78
			c4.836,0,7.094,1.359,9.171,4.529c1.864,2.832,4.756,7.214,8.965,13.573c5.664,8.554,8.6,14.107,18.342,14.107
			C481.309,108.252,483.79,106.977,486.822,105.507L486.822,105.507z"/>
		<path fill="#FFFFFF" d="M413.122,84.145l-3.333,22h-56.297v-6.63c6.64-0.153,7.607-1.67,7.607-6.633V48.993
			c0-4.93-0.918-6.466-7.607-6.736v-6.316h52.652l2.815,21.786h-6.459c-2.218-9.208-5.311-13.049-10.217-13.049H377.99v20.627h3.553
			c4.111,0,6.583-1.51,6.99-8.734h6.353v26.312h-6.353c-0.821-7.512-2.304-8.523-7.094-8.523h-3.449v21.055
			c0,1.028,0.424,1.572,2.193,1.572h14.589c5.758,0,8.747-2.214,12.304-12.842H413.122L413.122,84.145z M412.29,84.883h-4.692
			c-3.667,10.501-6.677,12.842-12.825,12.842H379.66c-1.864,0-2.398-0.658-2.398-2.207V73.622h4.178
			c5.134,0,7.071,1.188,7.716,8.526h4.902V57.306h-4.692c-0.795,7.314-3.316,8.737-7.822,8.737h-4.281V44.047h15.022
			c5.701,0,8.711,4.122,10.842,12.838h4.792l-2.604-20.313h-51.09v5.053c6.6,0.177,7.607,2.241,7.607,7.368v43.889
			c0,5.144-1.142,7.084-7.607,7.261v5.371h54.938L412.29,84.883L412.29,84.883z"/>
		<path fill="#FFFFFF" d="M354.434,57.624h-5.945c-1.896-9.492-5.824-12.838-11.986-12.838h-6.569v48.097
			c0,4.76,0.848,6.449,8.025,6.63v6.633h-32.42v-6.633c6.78-0.181,7.611-1.73,7.611-6.63V44.785h-6.045
			c-6.6,0-9.829,3.827-11.677,12.838H284.69c-2.789-9.368-7.063-13.473-17.722-13.473c-7.054,0-10.74,3.617-10.74,7.157
			c0,2.789,1.649,5.187,5.424,6.633c4.676,1.787,9.051,3.387,13.867,5.26c9.812,3.828,19.698,9.145,19.698,21.365
			c0,12.698-12.685,22.207-26.582,22.207c-10.264,0-16.048-3.049-18.66-3.049c-0.694,0-1.362,0.367-1.877,2.421h-5.734
			l-3.229-25.997h5.835c4.288,14.602,11.419,17.05,21.686,17.05c8.143,0,11.259-4.175,11.259-8.42
			c0-4.215-1.256-5.912-13.343-10.631c-2.472-0.965-5.377-2.03-8.239-3.056c-7.669-2.742-16.155-7.855-16.155-19.786
			c0-13.934,13.086-20.834,26.896-20.834c7.521,0,12.168,3.156,14.385,3.156c0.709,0,1.427-0.458,1.67-1.687h4.793l1.877,14.953
			h0.104l1.877-14.953h59.838L354.434,57.624L354.434,57.624z M353.599,56.782l-2.608-20.209h-58.588L289.9,54.992h-0.104
			l-2.602-18.419h-3.547c-0.308,1.226-1.256,1.897-1.877,1.897c-2.738,0-7.388-3.263-14.699-3.263
			c-13.666,0-26.063,6.71-26.063,20.1c0,10.785,6.856,15.68,15.323,18.951c3.176,1.222,5.897,2.131,8.55,3.152
			c12.44,4.803,13.863,6.633,13.863,11.369c0,4.716-3.282,9.158-12.09,9.158c-10.558,0-17.952-2.666-22.203-17.051h-4.383
			l3.026,24.629h4.379c0.521-1.98,1.188-2.528,2.084-2.528c3.236,0,9.021,3.159,19.077,3.159c13.684,0,25.854-9.365,25.854-21.579
			c0-11.756-9.682-16.85-19.284-20.733c-4.81-1.947-9.498-3.584-13.867-5.261c-3.728-1.436-5.941-3.954-5.941-7.264
			c0-4.018,4.295-7.892,11.572-7.892c10.976,0,15.731,4.392,18.347,13.47h4.585h4.903c1.87-8.807,5.254-12.838,12.301-12.838h6.67
			v48.835c0,5.017-0.992,7.084-7.505,7.261v5.371h31.063v-5.371c-6.819-0.177-8.129-2.281-8.129-7.261V44.047h7.298
			c6.713,0,10.771,3.661,12.611,12.735H353.599L353.599,56.782z"/>
		<path fill="#FFFFFF" d="M239.027,106.145h-32.42v-6.633c6.867-0.181,7.611-1.73,7.611-6.63V49.097
			c0-4.776-0.892-6.362-7.715-6.629v-6.526h32.523v6.526c-6.689,0-7.818,1.81-7.818,6.629v43.786c0,4.819,1.042,6.449,7.818,6.63
			V106.145L239.027,106.145z M238.3,105.514v-5.371c-6.513-0.087-7.818-2.281-7.818-7.261V49.097c0-4.979,1.306-7.277,7.818-7.368
			v-5.157h-31.064v5.157c6.82,0.271,7.712,2.565,7.712,7.368v43.786c0,4.803-1.021,7.174-7.712,7.261v5.371H238.3L238.3,105.514z"/>
		<path fill="#FFFFFF" d="M210.672,74.36c-6.689,0.267-8.129,0.928-8.129,6.736v20.837c-4.666,0.141-8.159,1.479-12.508,2.843
			c-4.579,1.439-9.107,2.842-16.265,2.842c-16.767,0-28.934-7.731-34.194-19.478h-0.104l-2.815,18.005H88.079
			c-3.06,1.042-6.776,2.215-13.446,2.215c-10.273,0-14.432-5.287-19.595-13.901c-4.315-7.193-7.312-12.307-9.382-15.744
			c-1.784-2.959-4.128-5.403-9.375-5.403h-3.243v19.571c0,4.732,1.503,6.54,8.55,6.63v6.633H7.395v-6.633
			c6.953-0.09,8.34-1.667,8.34-6.526V39.949c-5.094,0.798-8.4,3.61-10.32,6.633L0,45.423l2.395-12.731
			c9.896-2.064,21.525-4.325,37.123-4.325c16.746,0,31.675,6.366,31.675,21.576c0,12.391-7.04,17.294-14.063,19.695v0.094
			c1.96,0.427,4.491,3.009,6.569,5.998c3.45,4.963,5.824,8.303,8.019,11.365c4.683,6.54,8.758,12.11,11.88,12.11
			c2.769,0,4.172-1.148,4.172-6.111v-44.1c0-4.93-0.919-6.526-7.611-6.526v-6.526h52.652l2.815,21.786h-6.045
			c-2.171-9.469-6.025-12.942-10.838-12.942h-14.087v20.52h3.764c4.205,0,6.52-1.146,7.298-8.734h5.941V82.78h-6.148
			c-0.635-7.632-2.405-8.42-7.194-8.42h-3.66v21.055c0,1.238,0.304,1.572,2.09,1.572h14.8c5.316,0,8.703-2.19,12.614-13.049h3.958
			c-1.152-4.295-1.874-7.868-1.874-12.104c0-21.262,12.321-37.998,36.902-37.998c5.945,0,13.119,3.474,15.534,3.474
			c1.877,0,2.868-0.751,3.543-1.684h4.064l2.712,21.997h-6.045c-3.283-9.893-8.253-15.367-19.912-15.367
			c-14.151,0-18.974,11.392-18.974,27.995c0,18.192,6.723,29.261,18.139,29.261c11.082,0,13.346-3.313,13.346-8.21V81.096
			c0-5.854-0.848-6.56-7.715-6.736v-6.526h32.834V74.36L210.672,74.36z M209.944,73.725v-5.261h-31.378v5.261
			c6.689,0.181,7.715,1.252,7.715,7.371v10.206c0,5.468-2.963,8.841-14.074,8.841c-11.997,0-18.764-11.622-18.764-29.892
			c0-16.703,4.883-28.836,19.599-28.836c12,0,17.357,5.852,20.537,15.47h4.585l-2.501-20.52h-3.126
			c-0.759,0.898-2.041,1.68-3.857,1.68c-2.415,0-9.68-3.577-15.534-3.577c-23.9,0-36.171,16.438-36.171,37.366
			c0,4.242,0.668,8.707,2.084,12.731h-4.378c-3.798,10.497-6.987,13.159-13.136,13.159h-15.428c-1.776,0-2.19-0.551-2.19-1.891
			V73.622h4.389c5.354,0,7.277,1.188,7.922,8.526h4.586V57.306h-4.379c-0.791,7.314-3.52,8.737-8.025,8.737h-4.492V44.047h15.022
			c5.144,0,9.195,3.911,11.259,12.838h4.479l-2.604-20.313h-51.09v5.157c6.603,0,7.508,2.138,7.508,7.264v44.1
			c0,5.206-1.282,6.847-5.007,6.847c-3.637,0-8.253-6.677-12.4-12.425c-2.291-3.173-4.977-6.927-8.02-11.259
			c-2.244-3.196-4.382-5.497-7.926-6.525l0.018-0.094c8.47-2.815,15.192-8.043,15.192-19.695c0-14.405-14.007-20.841-30.84-20.841
			c-14.977,0-26.191,2.047-36.498,4.115L0.936,44.898l4.171,0.842c1.71-2.699,4.913-5.828,11.359-6.74v53.882
			c0,5.063-1.474,7.084-8.343,7.261v5.371H40.96v-5.371c-6.687-0.177-8.65-2.305-8.65-7.261V72.57h0.104h3.868
			c5.868,0,8.353,2.852,10.103,5.827c1.964,3.337,4.856,8.243,9.278,15.748c5.097,8.65,9.215,13.479,18.971,13.479
			c6.202,0,10.287-1.065,13.346-2.11h48.055l3.129-19.999h0.104c5.05,13.242,17.588,21.364,34.505,21.364
			c7.066,0,11.512-1.309,16.055-2.735c4.081-1.278,7.745-2.769,12.094-2.945V81.096C201.919,75.014,203.255,73.819,209.944,73.725
			L209.944,73.725z"/>
		<path fill="#FFFFFF" d="M410.203,86.777l-2.605,16.736h-51.497v-1.369c6.111-0.09,7.607-3.895,7.607-9.262V48.993
			c0-5.387-1.099-8.978-7.607-9.158v-1.263h47.442l2.498,16.526h-1.353c-1.696-7.328-5.678-12.842-12.404-12.842h-17.003v25.68
			h6.262c5.341,0,8.728-2.03,9.489-8.734h1.148v21.155h-1.252c-0.618-6.7-3.507-8.634-9.489-8.634h-6.158v24.314
			c0,2.769,0.858,3.58,3.75,3.58h15.741c7.702,0,10.737-3.347,14.178-12.842H410.203L410.203,86.777z"/>
		<path fill="#FFFFFF" d="M351.722,54.992h-1.253c-1.623-8.139-5.544-12.735-13.967-12.735h-9.074v50.625
			c0,5.561,1.546,8.978,7.925,9.158v1.473h-27.21v-1.473c6.427-0.451,7.509-3.598,7.509-9.158V42.257h-8.547
			c-8.394,0-12.174,4.976-13.971,12.842h-1.46l2.502-16.526h54.938L351.722,54.992L351.722,54.992z"/>
		<path fill="#FFFFFF" d="M292.612,84.566c0,10.805-10.928,19.682-23.977,19.682c-10.777,0-16.876-3.366-20.326-3.366
			c-0.782,0-1.801,0.638-2.295,2.632h-1.042L241.95,82.78h1.146c3.527,13.386,12.124,17.05,23.56,17.05
			c9.469,0,13.971-4.953,13.971-11.052c0-6.223-2.829-8.463-15.116-12.949c-2.855-1.038-5.588-2.021-8.55-3.155
			c-7.799-2.989-14.074-7.849-14.074-17.368c0-11.823,10.938-18.099,24.187-18.099c7.418,0,11.753,3.156,15.22,3.156
			c0.872,0,1.58-0.561,2.188-1.79h0.835l2.604,16.526h-1.249c-2.501-8.49-7.712-13.473-19.702-13.473
			c-7.929,0-13.449,4.262-13.449,9.682c0,4.459,3.267,7.395,7.194,8.944c4.476,1.771,9.435,3.544,14.074,5.371
			C285.886,69.995,292.612,74.894,292.612,84.566L292.612,84.566z"/>
		<path fill="#FFFFFF" d="M236.319,103.513h-27.21v-1.473c6.603-0.271,7.715-3.574,7.715-9.158V49.097
			c0-5.574-1.068-9.081-7.715-9.261v-1.263h27.21v1.263c-6.336,0.18-7.818,3.467-7.818,9.261v43.786
			c0,5.691,1.482,8.978,7.818,9.158V103.513L236.319,103.513z"/>
		<path fill="#FFFFFF" d="M208.07,71.724c-6.426,0.361-8.133,2.342-8.133,9.372v18.312c-3.356,0.184-7.508,1.827-10.737,2.842
			c-4.448,1.393-8.627,2.839-15.43,2.839c-21.937,0-35.025-13.931-35.025-33.255c0-19.962,11.612-35.366,34.4-35.366
			c5.958,0,12.084,3.367,15.848,3.367c2.538,0,3.363-0.551,4.168-1.58h0.835l2.291,16.736h-1.249
			c-2.712-8.493-8.851-15.363-21.996-15.363c-16.402,0-21.579,13.683-21.579,30.623c0,19.087,6.816,31.789,20.744,31.789
			c11.278,0,15.951-3.523,15.951-10.738V81.096c0-7.027-1.393-9.372-7.818-9.372v-1.259h27.73V71.724L208.07,71.724z"/>
		<path fill="#FFFFFF" d="M485.049,104.456c-2.19,1.062-4.876,2.007-10.631,2.007c-8.293,0-11.81-6.252-16.368-13.159
			c-4.114-6.249-7.11-10.734-9.479-14.418c-2.314-3.601-4.763-4.736-9.071-4.736h-5.113v18.733c0,5.778,2.404,9.048,8.236,9.158
			v1.473h-27.521v-1.473c5.911-0.107,7.712-3.598,7.712-9.158V49.307c0-5.641-1.857-9.358-7.712-9.472v-1.263h32.313
			c13.049,0,22.203,5.527,22.203,16.001c0,8.32-7.732,16.105-16.974,17.996v0.213c5.007,1.236,7.692,5.301,12.094,11.353
			c2.599,3.567,5,6.78,7.542,10.116c4.712,6.186,6.369,8.941,9.228,8.941c1.416,0,2.699-0.154,3.54-0.425V104.456L485.049,104.456z
			 M457.528,55.836c0-9.258-5.196-13.58-13.656-13.58h-9.485v28.105h9.175C450.738,70.362,457.528,65.499,457.528,55.836
			L457.528,55.836z"/>
		<path fill="#FFFFFF" d="M137.075,86.777l-2.812,16.736H87.665c-3.264,1.38-7.244,2.428-13.136,2.428
			c-8.31,0-12.705-4.832-17.304-12.638c-4.231-7.188-7.435-12.715-9.603-16.469c-2.141-3.711-4.753-6.052-10.507-6.052h-6.787v22.1
			c0,5.391,2.138,8.888,8.654,9.158v1.473H9.896v-1.473c6.513-0.271,8.442-3.791,8.442-9.158V36.476
			c-8.837,1.349-11.419,3.333-14.07,6.843l-1.146-0.314l1.459-7.892c6.059-1.563,20.046-4.011,34.936-4.011
			c15.594,0,28.756,5.778,28.756,18.84c0,12.188-9.185,17.711-17.607,19.472v0.106c4.92,1.162,8.707,4.402,11.572,8.526
			c2.639,3.791,4.807,6.924,7.291,10.414c4.843,6.813,9.191,13.27,14.071,13.27c5.356,0,6.669-3.27,6.669-8.637v-44.1
			c0-5.387-0.904-8.891-7.504-9.158v-1.263h47.442l2.502,16.526h-1.046c-1.773-7.729-5.988-12.842-12.715-12.842h-17.003v25.68
			h6.473c5.337,0,9.041-2.03,9.799-8.734h0.731v21.155h-1.045c-0.615-6.7-3.607-8.634-9.589-8.634h-6.369v24.945
			c0,2.175,0.741,2.949,3.961,2.949h15.638c7.32,0,11.102-3.286,14.488-12.842H137.075L137.075,86.777z M55.349,51.204
			c0-11.606-7.615-16.418-15.831-16.418c-4.168,0-6.978,0.327-9.188,0.527v31.683h10.11C48.902,66.996,55.349,61.852,55.349,51.204
			L55.349,51.204z"/>
		<path fill="#FFFFFF" d="M455.168,55.836c0,8.771-5.521,12.628-12.428,12.628h-6.369V44.047h7.395
			C450.648,44.047,455.168,47.39,455.168,55.836L455.168,55.836z M454.449,55.836c0-7.789-4.231-11.051-10.684-11.051h-6.677V67.73
			h5.654C449.032,67.73,454.449,63.899,454.449,55.836L454.449,55.836z"/>
		<path fill="#FFFFFF" d="M53.414,51.204c0,9.305-5.998,13.894-12.995,13.894H32.31V37.104c1.881-0.217,4.416-0.424,7.188-0.424
			C46.654,36.679,53.414,40.827,53.414,51.204L53.414,51.204z M52.583,51.204c0-9.482-6.235-13.683-13.086-13.683
			c-2.552,0-4.896,0.2-6.459,0.317v26.526h7.381C46.758,64.364,52.583,59.625,52.583,51.204L52.583,51.204z"/>
	</g>
	<g>
		<path fill="#FFFFFF" d="M117.941,23.958c1.341-0.142,2.21-0.38,2.607-0.717c0.397-0.336,0.597-1.189,0.597-2.558V4.468
			c0-1.293-0.196-2.139-0.588-2.537c-0.391-0.397-1.264-0.644-2.616-0.738V0.516h10.288v0.677c-1.341,0.071-2.24,0.291-2.696,0.658
			c-0.457,0.368-0.686,1.157-0.686,2.368v17.514c0,0.404,0.068,0.721,0.205,0.952c0.137,0.231,0.437,0.377,0.9,0.437
			c0.272,0.035,0.561,0.059,0.864,0.071c0.303,0.012,0.87,0.018,1.701,0.018c3.243,0,5.436-0.267,6.576-0.801
			c1.141-0.534,2.245-1.898,3.314-4.094h0.927l-1.782,6.319h-19.612V23.958z"/>
		<path fill="#FFFFFF" d="M145.462,3.222C147.705,1.074,150.464,0,153.739,0c3.286,0,6.052,1.08,8.294,3.24
			c2.433,2.338,3.649,5.453,3.649,9.344c0,3.952-1.258,7.096-3.773,9.434c-2.255,2.089-4.979,3.133-8.17,3.133
			c-3.418,0-6.254-1.157-8.508-3.471c-2.291-2.361-3.436-5.393-3.436-9.096C141.796,8.692,143.018,5.571,145.462,3.222z
			 M148.188,21.083c1.509,1.833,3.361,2.75,5.56,2.75c2.15,0,3.988-0.893,5.515-2.679c1.526-1.786,2.29-4.642,2.29-8.57
			c0-3.975-0.772-6.846-2.316-8.615c-1.545-1.768-3.374-2.652-5.488-2.652c-2.187,0-4.036,0.917-5.551,2.75
			c-1.515,1.833-2.272,4.672-2.272,8.517C145.925,16.417,146.68,19.25,148.188,21.083z"/>
		<path fill="#FFFFFF" d="M170.296,17.301c0.616,1.638,1.339,2.943,2.168,3.916c1.445,1.697,3.24,2.545,5.385,2.545
			c1.161,0,2.166-0.368,3.013-1.104c0.848-0.736,1.271-1.762,1.271-3.08c0-1.186-0.426-2.219-1.278-3.097
			c-0.557-0.558-1.729-1.395-3.518-2.51l-3.109-1.94c-0.936-0.593-1.683-1.192-2.24-1.797c-1.032-1.151-1.548-2.421-1.548-3.809
			c0-1.839,0.61-3.37,1.833-4.592C173.493,0.611,175.113,0,177.131,0c0.83,0,1.83,0.205,2.999,0.614s1.836,0.614,2.002,0.614
			c0.451,0,0.763-0.107,0.935-0.321c0.172-0.213,0.306-0.516,0.4-0.908h0.748l0.801,7.761h-0.872
			c-0.594-2.338-1.546-3.969-2.856-4.895c-1.312-0.925-2.607-1.388-3.89-1.388c-0.996,0-1.866,0.293-2.607,0.881
			s-1.112,1.403-1.112,2.448c0,0.938,0.284,1.738,0.853,2.403c0.568,0.676,1.451,1.382,2.648,2.118l3.202,1.976
			c2.003,1.234,3.416,2.367,4.238,3.399c0.811,1.044,1.216,2.278,1.216,3.703c0,1.911-0.722,3.506-2.163,4.788
			c-1.441,1.282-3.284,1.922-5.526,1.922c-1.128,0-2.306-0.213-3.533-0.641c-1.229-0.427-1.932-0.641-2.109-0.641
			c-0.427,0-0.715,0.13-0.863,0.392c-0.148,0.261-0.246,0.54-0.294,0.836h-0.801l-1.086-7.761H170.296z"/>
		<path fill="#FFFFFF" d="M197.699,24.634v-0.676c0.938-0.106,1.641-0.458,2.109-1.058s1.272-2.24,2.41-4.922l7.594-17.889h0.727
			l9.082,20.665c0.605,1.369,1.089,2.216,1.45,2.54c0.362,0.324,0.971,0.545,1.825,0.664v0.676h-9.271v-0.676
			c1.065-0.095,1.752-0.21,2.061-0.346s0.463-0.469,0.463-1.001c0-0.177-0.06-0.49-0.179-0.938
			c-0.118-0.449-0.284-0.921-0.498-1.417l-1.459-3.507h-9.607c-0.946,2.385-1.512,3.841-1.695,4.366
			c-0.185,0.525-0.276,0.941-0.276,1.249c0,0.614,0.249,1.039,0.747,1.275c0.308,0.142,0.889,0.248,1.741,0.319v0.676H197.699z
			 M213.398,15.272l-4.178-10.039l-4.196,10.039H213.398z"/>
		<path fill="#FFFFFF" d="M224.808,23.958c1.507-0.154,2.475-0.495,2.901-1.023c0.428-0.527,0.641-1.751,0.641-3.672V3.202
			l-0.498-0.586c-0.534-0.628-0.988-1.017-1.361-1.165c-0.374-0.148-0.935-0.234-1.683-0.258V0.516h6.22l14.071,17.441V5.844
			c0-1.993-0.297-3.29-0.89-3.891c-0.392-0.389-1.258-0.643-2.599-0.76V0.516h8.562v0.677c-1.389,0.142-2.314,0.48-2.777,1.015
			c-0.462,0.534-0.693,1.756-0.693,3.667v19.188h-0.623L229.952,5.073v14.19c0,1.992,0.29,3.29,0.872,3.895
			c0.379,0.392,1.228,0.658,2.545,0.8v0.676h-8.562V23.958z"/>
		<path fill="#FFFFFF" d="M269.292,0.677c1.364,0.392,2.147,0.587,2.349,0.587c0.522,0,0.894-0.101,1.113-0.303
			c0.219-0.202,0.406-0.492,0.561-0.872h0.801l0.285,7.671h-0.837c-0.748-1.768-1.52-3.085-2.314-3.952
			c-1.436-1.519-3.305-2.278-5.606-2.278c-2.338,0-4.394,0.887-6.167,2.661c-1.774,1.774-2.661,4.696-2.661,8.766
			c0,3.358,0.884,5.98,2.652,7.867c1.768,1.887,3.951,2.83,6.55,2.83c0.438,0,0.955-0.042,1.549-0.125
			c0.593-0.083,1.156-0.213,1.69-0.391c0.866-0.284,1.406-0.529,1.62-0.737c0.213-0.207,0.32-0.512,0.32-0.915v-5.808
			c0-1.408-0.199-2.285-0.597-2.63c-0.397-0.346-1.267-0.561-2.607-0.645V11.73h9.291v0.676c-0.901,0.06-1.501,0.208-1.798,0.445
			c-0.498,0.38-0.747,1.163-0.747,2.35v7.173c0,0.427-1.048,0.997-3.142,1.709c-2.095,0.712-4.109,1.068-6.043,1.068
			c-3.56,0-6.562-1.038-9.007-3.115c-2.693-2.29-4.04-5.363-4.04-9.22c0-3.394,1.074-6.301,3.222-8.722
			c2.361-2.669,5.494-4.004,9.398-4.004C266.538,0.089,267.927,0.285,269.292,0.677z"/>
		<path fill="#FFFFFF" d="M279.28,23.958c1.341-0.142,2.21-0.38,2.607-0.717c0.397-0.336,0.597-1.189,0.597-2.558V4.468
			c0-1.293-0.196-2.139-0.588-2.537c-0.391-0.397-1.264-0.644-2.616-0.738V0.516h19.366l0.124,5.215h-0.926
			c-0.309-1.606-0.771-2.646-1.388-3.118c-0.617-0.472-1.994-0.708-4.13-0.708h-4.963c-0.535,0-0.865,0.086-0.99,0.258
			c-0.125,0.172-0.188,0.496-0.188,0.97v8.134h5.625c1.554,0,2.545-0.23,2.972-0.69c0.428-0.461,0.771-1.393,1.033-2.798h0.854
			v8.419h-0.854c-0.273-1.412-0.623-2.346-1.051-2.803c-0.427-0.457-1.412-0.685-2.954-0.685h-5.625v9.024
			c0,0.724,0.229,1.151,0.687,1.282c0.457,0.13,1.827,0.196,4.108,0.196c2.472,0,4.296-0.27,5.473-0.81
			c1.176-0.54,2.233-1.848,3.171-3.925h1.015l-1.655,6.159H279.28V23.958z"/>
		<path fill="#FFFFFF" d="M302.459,23.958c1.341-0.142,2.21-0.38,2.607-0.717c0.397-0.336,0.597-1.189,0.597-2.558V4.468
			c0-1.293-0.196-2.139-0.588-2.537c-0.391-0.397-1.264-0.644-2.616-0.738V0.516h10.288v0.677c-1.341,0.071-2.24,0.291-2.696,0.658
			c-0.457,0.368-0.686,1.157-0.686,2.368v17.514c0,0.404,0.068,0.721,0.205,0.952c0.137,0.231,0.437,0.377,0.9,0.437
			c0.272,0.035,0.561,0.059,0.864,0.071c0.303,0.012,0.87,0.018,1.701,0.018c3.243,0,5.436-0.267,6.576-0.801
			c1.141-0.534,2.245-1.898,3.314-4.094h0.927l-1.782,6.319h-19.612V23.958z"/>
		<path fill="#FFFFFF" d="M325.637,23.958c1.341-0.142,2.21-0.38,2.607-0.717c0.397-0.336,0.597-1.189,0.597-2.558V4.468
			c0-1.293-0.196-2.139-0.588-2.537c-0.391-0.397-1.264-0.644-2.616-0.738V0.516h19.366l0.124,5.215h-0.926
			c-0.309-1.606-0.771-2.646-1.388-3.118c-0.617-0.472-1.994-0.708-4.13-0.708h-4.963c-0.535,0-0.865,0.086-0.99,0.258
			c-0.125,0.172-0.188,0.496-0.188,0.97v8.134h5.625c1.554,0,2.545-0.23,2.972-0.69c0.428-0.461,0.771-1.393,1.033-2.798h0.854
			v8.419h-0.854c-0.273-1.412-0.623-2.346-1.051-2.803c-0.427-0.457-1.412-0.685-2.954-0.685h-5.625v9.024
			c0,0.724,0.229,1.151,0.687,1.282c0.457,0.13,1.827,0.196,4.108,0.196c2.472,0,4.296-0.27,5.473-0.81
			c1.176-0.54,2.233-1.848,3.171-3.925h1.015l-1.655,6.159h-19.704V23.958z"/>
		<path fill="#FFFFFF" d="M350.755,17.301c0.616,1.638,1.339,2.943,2.168,3.916c1.445,1.697,3.24,2.545,5.385,2.545
			c1.161,0,2.166-0.368,3.013-1.104c0.848-0.736,1.271-1.762,1.271-3.08c0-1.186-0.426-2.219-1.278-3.097
			c-0.557-0.558-1.729-1.395-3.518-2.51l-3.109-1.94c-0.936-0.593-1.683-1.192-2.24-1.797c-1.032-1.151-1.548-2.421-1.548-3.809
			c0-1.839,0.61-3.37,1.833-4.592C353.952,0.611,355.572,0,357.59,0c0.83,0,1.83,0.205,2.999,0.614s1.836,0.614,2.002,0.614
			c0.451,0,0.763-0.107,0.935-0.321c0.172-0.213,0.306-0.516,0.4-0.908h0.748l0.801,7.761h-0.872
			c-0.594-2.338-1.546-3.969-2.856-4.895c-1.312-0.925-2.607-1.388-3.89-1.388c-0.996,0-1.866,0.293-2.607,0.881
			s-1.112,1.403-1.112,2.448c0,0.938,0.284,1.738,0.853,2.403c0.568,0.676,1.451,1.382,2.648,2.118l3.202,1.976
			c2.003,1.234,3.416,2.367,4.238,3.399c0.811,1.044,1.216,2.278,1.216,3.703c0,1.911-0.722,3.506-2.163,4.788
			c-1.441,1.282-3.284,1.922-5.526,1.922c-1.128,0-2.306-0.213-3.533-0.641c-1.229-0.427-1.932-0.641-2.109-0.641
			c-0.427,0-0.715,0.13-0.863,0.392c-0.148,0.261-0.246,0.54-0.294,0.836h-0.801l-1.086-7.761H350.755z"/>
	</g>
</g>
</svg>
