<?xml version="1.0" encoding="utf-8"?>
<!-- Generator: Adobe Illustrator 16.0.0, SVG Export Plug-In . SVG Version: 6.00 Build 0)  -->
<!DOCTYPE svg PUBLIC "-//W3C//DTD SVG 1.1//EN" "http://www.w3.org/Graphics/SVG/1.1/DTD/svg11.dtd">
<svg version="1.1" id="Layer_1" xmlns="http://www.w3.org/2000/svg" xmlns:xlink="http://www.w3.org/1999/xlink" x="0px" y="0px"
	 width="702.176px" height="154.609px" viewBox="0 0 702.176 154.609" enable-background="new 0 0 702.176 154.609"
	 xml:space="preserve">
<g>
	<rect x="471.75" y="37.842" fill="#FFFFFF" width="0" height="0.002"/>
	<polygon fill="#FFFFFF" points="386.521,29.706 386.521,29.706 386.521,29.706 	"/>
	<polygon fill="#FFFFFF" points="332.711,28.917 332.711,28.917 332.711,28.917 	"/>
	<polygon fill="#FFFFFF" points="323.587,25.542 323.587,25.372 323.585,25.542 	"/>
	<rect x="194.16" y="38.039" fill="#FFFFFF" width="0" height="0.001"/>
	<path fill="#FFFFFF" d="M591.799,122.732h-1.805h-1.009l-0.346,0.949c-4.997,13.79-9.102,17.568-19.093,17.568h-22.699
		c-3.376,0-3.97-0.558-3.97-3.722v-33.621h7.441c8.39,0,11.48,2.81,12.248,11.141l0.121,1.306H564h1.805h1.441v-1.439V84.406v-1.44
		h-1.441h-1.653h-1.286l-0.146,1.277c-0.91,8.039-4.459,11.319-12.249,11.319h-7.593V61.409h23.079
		c10.839,0,14.979,10.903,16.483,17.4l0.259,1.115h1.144h1.956h1.675l-0.252-1.654l-3.605-23.831l-0.186-1.224h-1.239h-68.415
		h-1.438v1.44v1.819v1.4l1.399,0.04c8.091,0.224,9.571,4.138,9.571,11.766v63.294c0,8.477-2.678,11.814-9.554,11.916l-1.418,0.021
		v1.419v1.973v1.438h1.438h74.268h1.232l0.189-1.219l3.755-24.133l0.258-1.662h-1.678V122.732z"/>
	<path fill="#FFFFFF" d="M508.887,78.107l-3.76-23.678l-0.193-1.213h-1.229h-79.228h-1.238l-0.188,1.223l-3.605,23.83l-0.249,1.656
		h1.674h2.103h1.147l0.257-1.119c2.75-12.031,8.53-17.396,18.746-17.396h10.885v71.565c0,7.679-1.372,11.2-9.488,11.769
		l-1.339,0.094v1.343v2.123v1.439h1.44h39.24h1.438v-1.439v-2.123v-1.399l-1.396-0.04c-7.406-0.209-10.03-3.288-10.03-11.767V61.41
		h11.645c10.721,0,16.322,5.146,18.73,17.204l0.232,1.158h1.18h1.805h1.687L508.887,78.107z"/>
	<path fill="#FFFFFF" d="M396.086,92.321c-3.312-1.302-6.777-2.602-10.127-3.858c-3.396-1.273-6.91-2.593-10.169-3.879
		c-3.534-1.396-9.46-4.753-9.46-11.563c0-7.139,7.719-12.521,17.951-12.521c15.146,0,23.229,5.5,27.027,18.394l0.308,1.033h1.077
		h1.802h1.687l-0.262-1.665l-3.759-23.827l-0.191-1.217h-1.229h-1.203h-0.896l-0.396,0.801c-0.881,1.778-1.601,1.778-1.868,1.778
		c-1.794,0-3.957-0.727-6.462-1.566c-3.964-1.331-8.896-2.985-15.484-2.985c-21.724,0-36.321,11.068-36.321,27.545
		c0,12.279,6.941,20.912,21.221,26.388c3.501,1.344,6.711,2.509,10.105,3.745l2.246,0.817c18.256,6.661,20.851,9.677,20.851,17.317
		c0,8.941-7.165,14.495-18.702,14.495c-18.498,0-28.242-7.031-32.585-23.513l-0.28-1.074h-1.112H348.2h-1.665l0.24,1.649
		l4.358,29.897l0.18,1.233h1.248h1.502h1.125l0.274-1.094c0.462-1.864,1.294-2.698,1.909-2.698c1.604,0,3.828,0.612,6.646,1.392
		c5.293,1.462,12.545,3.464,22.666,3.464c19.86,0,36.019-13.38,36.019-29.826C422.703,105.898,412.062,98.616,396.086,92.321z"/>
	<path fill="#FFFFFF" d="M340.081,53.214h-39.236h-1.441v1.441v1.82v1.402l1.402,0.037c8.268,0.225,9.723,4.021,9.723,11.918v63.142
		c0,7.862-1.407,11.427-9.743,11.769l-1.382,0.054v1.384v2.123v1.441h1.441h39.236h1.441v-1.441v-2.123v-1.399l-1.4-0.038
		c-7.383-0.212-9.874-3.181-9.874-11.769V69.833c0-8.702,2.491-11.708,9.874-11.918l1.4-0.039v-1.4v-1.82v-1.441H340.081z"/>
	<path fill="#FFFFFF" d="M299.343,99.207h-39.99h-1.44v1.439v1.818v1.439h1.44c7.997,0,9.835,2.258,9.835,12.073v14.721
		c0,6.944-2.563,14.044-21.56,14.044c-18.099,0-28.479-16.186-28.479-44.4c0-28.35,9.986-42.726,29.681-42.726
		c15.879,0,25.804,6.919,30.347,21.154l0.32,1h1.053h1.804h1.651l-0.224-1.634l-3.307-24.132l-0.171-1.245h-1.256h-1.203h-0.704
		l-0.432,0.553c-0.838,1.073-1.584,1.726-4.877,1.726c-2.184,0-5.236-0.948-8.47-1.95c-4.394-1.361-9.376-2.905-14.382-2.905
		c-15.987,0-29.194,5.248-38.193,15.175c-8.411,9.28-12.855,22.163-12.855,37.263c0,14.327,4.779,26.59,13.824,35.458
		c9.3,9.122,22.483,13.941,38.126,13.941c9.477,0,15.641-1.943,21.598-3.819l1.085-0.344c1.001-0.313,2.062-0.67,3.16-1.036
		c3.917-1.312,8.356-2.797,11.97-2.998l1.36-0.077v-1.362v-26.407c0-9.348,1.939-11.604,10.368-12.075l1.36-0.075v-1.362v-1.818
		v-1.439h-1.439V99.207z"/>
	<path fill="#FFFFFF" d="M699.298,145.861c-1.061,0.339-2.807,0.541-4.67,0.541c-2.88,0-5.039-2.873-9.771-9.164
		c-0.734-0.974-1.526-2.027-2.389-3.159c-3.886-5.101-7.336-9.729-10.857-14.567l-1.121-1.545
		c-4.621-6.371-8.203-11.314-13.264-13.923c12.438-4.134,21.693-15.066,21.693-26.312c0-15.122-12.818-24.514-33.456-24.514h-46.6
		h-1.44v1.44v1.819v1.413l1.412,0.027c6.809,0.133,9.712,3.787,9.712,12.221v62.839c0,8.232-2.813,11.641-9.709,11.766l-1.415,0.023
		v1.415v2.125v1.438h1.44h39.688h1.439v-1.438v-2.125v-1.415l-1.412-0.023c-7.236-0.137-10.466-3.765-10.466-11.766v-25.578h5.936
		c5.909,0,8.904,1.559,11.866,6.169c2.365,3.683,5.127,7.858,8.624,13.147c1.544,2.338,3.224,4.876,5.061,7.662l1.259,1.917
		c5.956,9.104,11.58,17.704,23.547,17.704c8.046,0,12.199-1.214,15.96-3.038l0.811-0.394v-0.901v-2.433v-1.972L699.298,145.861z
		 M658.607,79.552c0,13.474-9.395,19.506-18.704,19.506h-11.789V61.409h12.239C652.296,61.409,658.607,67.684,658.607,79.552z"/>
	<path fill="#FFFFFF" d="M196.005,122.731H194.5h-1.018l-0.341,0.958c-4.651,13.128-9.581,17.561-19.538,17.561h-22.549
		c-4.271,0-4.271-0.824-4.271-2.811v-34.532h7.743c8.502,0,11.63,2.811,12.396,11.139l0.121,1.306h1.313h1.505h1.439v-1.438v-30.51
		v-1.438h-1.439h-1.052h-1.287l-0.145,1.276c-0.899,7.935-4.699,11.321-12.703,11.321h-7.892V61.409h23.078
		c11.259,0,15.443,10.901,16.936,17.397l0.255,1.118h1.148h1.503h1.675l-0.251-1.656l-3.606-23.828l-0.183-1.224h-1.24h-68.418
		h-1.44v1.44v1.817v1.383l1.381,0.058c8.082,0.329,9.445,3.895,9.445,11.767v63.597c0,8.134-2.141,11.017-8.183,11.017
		c-5.976,0-11.903-8.358-18.178-17.209l-0.938-1.323c-3.165-4.446-5.967-8.478-9.211-13.146l-1.293-1.859
		c-3.744-5.386-8.138-9.202-13.114-11.392c8.922-2.842,22.075-10.119,22.075-28.314c0-17.648-16.442-28.611-42.911-28.611
		c-22.218,0-42.345,3.662-50.736,5.828l-0.891,0.231l-0.167,0.903L1.414,60.783L1.176,62.08l1.272,0.353L4.1,62.89l0.944,0.261
		l0.589-0.78c3.133-4.15,6.118-7.068,17.703-9.048v79.653c0,8.041-3.128,11.45-10.798,11.767l-1.38,0.058v1.382v2.12v1.44h1.439
		h41.945h1.439v-1.44v-2.12V144.8l-1.38-0.058c-7.778-0.32-11.098-3.84-11.098-11.767v-30.432h8.347
		c7.73,0,11.053,3.064,13.905,8.006c2.987,5.172,7.672,13.26,13.854,23.766c6.887,11.688,13.669,18.931,26.196,18.931
		c7.357,0,13.479-1.113,19.233-3.504h66.905h1.217l0.204-1.201l4.061-24.132l0.282-1.679H196.005L196.005,122.731z M76.705,72.872
		c0,13.354-7.499,21.33-20.058,21.33H43.503V51.269c2.968-0.283,6.66-0.636,11.81-0.636C65.654,50.632,76.705,56.474,76.705,72.872z
		"/>
	<path fill="#FFFFFF" d="M252.527,2.167v0.717l-0.061,0.014c2.776,0.009,4.621,2.112,4.625,5.812l-0.061,17.512l-0.252-0.022
		L237.397,2.228l-10.434-0.06h-0.208v0.73c3.048,0.125,4.404,1.494,5.551,3.436v24.583c-0.003,2.32-0.792,4.099-2.114,5.048
		c-0.416,0.338-0.917,0.574-1.469,0.665c-0.154,0.034-0.326,0.028-0.488,0.044c-0.184,0.023-0.36,0.059-0.554,0.056l0.174,0.729
		h0.085h11.181l0.062-0.729c-2.761-0.004-4.619-2.242-4.624-5.812l0.064-21.672l0.246,0.021l22.705,28.13l1.769,0.062V8.708
		c0.006-3.672,1.766-5.777,4.564-5.809V2.227L252.527,2.167z"/>
	<path fill="#FFFFFF" d="M508.834,2.169l-0.757,8.001l-0.092,1.056l0.929,0.053c0.752-4.431,2.673-6.998,7.2-6.991l5.217,0.06v27.36
		c-0.005,2.876-1.422,5.011-4.563,4.954l-0.06,0.792h15.597l0.064-0.729c-3.194-0.005-4.612-2.117-4.619-5.016l0.064-27.42h5.347
		c4.418-0.004,6.341,2.914,7.138,7.135h0.926l-0.526-9.196L508.834,2.169z"/>
	<polygon fill="#FFFFFF" points="507.979,11.286 507.979,11.288 508.014,11.288 	"/>
	<path fill="#FFFFFF" d="M466.179,36.725c-3.144-0.004-4.817-2.211-4.821-5.214V7.917c0.004-3.039,1.648-5.011,4.762-4.953
		l0.061-0.737l-15.489-0.06h-0.311l-0.062,0.73c3.197,0.009,4.418,2.002,4.423,5.02l-0.017,23.629
		c-2.268,2.834-5.883,4.781-8.968,4.781c-6.438-0.009-7.786-3.2-7.794-9.771V7.917c0.004-2.904,1.429-5.011,4.562-4.953l0.062-0.737
		l-15.297-0.06h-0.305l-0.062,0.73c3.227,0.009,4.613,1.951,4.617,5.02v18.241c0.013,8.767,4.192,12.021,12.427,12.031
		c5.176,0,8.522-2.28,10.863-4.544l0.105-0.103l-0.062,3.913h11.244L466.179,36.725z"/>
	<path fill="#FFFFFF" d="M385.533,27.855c-2.688,4.352-6.651,7.88-12.297,7.88c-7.209-0.003-12.34-7.27-12.354-17.309
		c0.015-9.375,4.497-15.315,11.761-15.327c5.502-0.004,10.719,2.998,12.092,9.514l1.068,0.062h0.062L384.932,1.83l-0.938-0.034
		c-0.441,0.891-1.401,1.027-2.033,1.027c-2.156,0-4.229-1.192-9.716-1.188c-10.769,0.002-18.376,7.135-18.379,18.575
		c0.003,10.588,7.457,17.976,17.784,17.979c7.646,0,11.791-4.091,14.797-9.057L385.533,27.855z"/>
	<polygon fill="#FFFFFF" points="385.922,12.676 385.93,12.676 385.831,11.612 	"/>
	<path fill="#FFFFFF" d="M314.12,17.769v-0.26V17.769z"/>
	<path fill="#FFFFFF" d="M332.64,28.386l-1.058-0.227c-1.867,5.166-3.663,6.984-7.593,6.979h-7.969
		c-2.214-0.002-2.443-0.479-2.447-1.465c0-0.178,0.006-0.369,0.006-0.579l0.062-12.552h4.956c3.37-0.014,4.728,0.773,4.954,4.357
		l0.936,0.066l0.06-11.635l-0.935-0.056c-0.361,3.646-1.99,4.628-5.015,4.617l-5.017-0.062l0.062-13.345h10.311
		c3.749,0,5.277,2.97,6.146,6.938l0.847,0.062h0.08l-0.927-9.26l-27.694-0.06l-0.062,0.719v0.015
		c3.257,0.006,4.615,2.083,4.617,5.017v23.792c-0.001,2.926-1.339,5.014-4.554,4.953l-0.062,0.793l0,0h28.724L332.64,28.386z"/>
	<polygon fill="#FFFFFF" points="331.08,11.487 331.085,11.487 330.991,10.592 	"/>
	<path fill="#FFFFFF" d="M288.285,19.215h-0.282l-0.062,1.327c3.178,0.006,4.022,0.866,4.024,4.624v5.75
		c-0.008,3.962-3.081,5.806-9.176,5.81c-7.366-0.004-11.153-7.596-11.164-17.509c0.011-9.099,3.353-16.3,12.152-16.317
		c7.118-0.002,10.029,4.234,11.5,9.912l0.879,0.062h0.05l-0.729-10.646l-0.571-0.007c-1.075,0.573-2.314,0.603-2.558,0.603
		c-0.026,0-0.037,0.005-0.045,0.005c-1.362-0.04-5.202-1.588-8.526-1.588c-12.406,0.002-19.362,8.392-19.366,19.171
		c0.004,10.44,7.425,17.775,19.366,17.78c7.406,0,11.28-2.876,14.417-2.91V25.166c0.002-3.846,1.045-4.608,4.161-4.624l0.06-1.255
		v-0.013L288.285,19.215z"/>
	<polygon fill="#FFFFFF" points="296.267,12.872 296.27,12.872 296.226,12.282 	"/>
	<path fill="#FFFFFF" d="M408.457,1.039c-11.108,0.003-18.975,7.568-18.979,18.379c0,10.709,7.946,18.77,18.776,18.771
		c10.755-0.003,18.575-8.019,18.579-18.771C426.831,8.895,419.109,1.042,408.457,1.039z M408.061,36.725
		c-7.118-0.001-11.553-7.142-11.562-17.11c0.01-10.101,4.354-16.91,11.758-16.913c7.209,0.003,11.55,6.958,11.561,17.311
		C419.806,30.023,415.367,36.725,408.061,36.725z"/>
	<polygon fill="#FFFFFF" points="170.351,18.618 170.351,18.757 170.351,18.757 	"/>
	<path fill="#FFFFFF" d="M170.413,21.397h0.017H170.413z"/>
	<path fill="#FFFFFF" d="M139.92,38.388c10.751-0.002,18.573-8.217,18.575-18.971C158.493,8.895,150.77,1.24,140.12,1.238
		c-11.103,0.003-18.971,7.363-18.971,18.181C121.149,30.126,129.087,38.386,139.92,38.388z M139.92,2.701
		c7.208,0.003,11.352,6.952,11.364,17.311c-0.012,10-4.05,16.712-11.364,16.712c-7.122-0.001-11.548-7.142-11.558-17.111
		C128.373,9.52,132.517,2.704,139.92,2.701z"/>
	<path fill="#FFFFFF" d="M193.744,36.618c-1.541,0-3.609-2.234-3.702-2.333c-0.918-1.208-1.993-2.886-3.291-5.125l-2.179-3.766
		c-1.363-2.352-3.115-3.869-4.967-4.989l0.045-0.258c3.746-1.048,7.097-4.815,7.092-8.663c0-5.71-4.524-9.055-11.634-9.06
		l-15.481-0.061h-0.316l-0.063,0.719v0.014c3.207,0.005,4.618,2.131,4.623,5.016v23.597c-0.005,2.92-1.382,5.014-4.56,4.955
		l-0.062,0.792h15.601l0.062-0.723v-0.006c-3.196-0.004-4.619-1.943-4.621-5.018l0.061-10.377h0.988c1.787,0,3.25,0.771,4.611,2.605
		c0.938,1.264,2.861,3.946,5.157,7.938c2.31,4.02,5.004,6.115,8.276,6.115c1.933,0,3.591-0.397,4.303-0.581l0.057-0.683h-0.01
		L193.744,36.618z M172.928,18.882l-2.637-0.062l0.061-14.332h2.973c4.41,0.008,6.795,2.657,6.801,7.594
		C180.117,16.75,177.306,18.872,172.928,18.882z"/>
	<path fill="#FFFFFF" d="M494.487,2.167v0.717l-0.061,0.014c2.775,0.009,4.618,2.112,4.624,5.812l-0.061,17.512l-0.252-0.022
		L479.357,2.228l-10.437-0.06h-0.207v0.73c3.047,0.125,4.403,1.494,5.553,3.436v24.583c-0.005,2.32-0.794,4.099-2.113,5.048
		c-0.419,0.338-0.919,0.574-1.47,0.665c-0.155,0.034-0.326,0.028-0.49,0.044c-0.146,0.017-0.293,0.037-0.443,0.044l-0.061,0.74
		h5.957h5.436l0.061-0.729c-2.656-0.004-4.46-2.092-4.597-5.431c-0.005-0.129-0.026-0.248-0.026-0.382l0.062-21.672l0.247,0.021
		l22.708,28.13l1.767,0.062V8.708c0.006-3.672,1.768-5.777,4.564-5.809V2.227L494.487,2.167z"/>
	<path fill="#FFFFFF" d="M566.386,2.167l-0.062,0.733c2.163,0.002,3.429,1.068,3.435,2.641c-0.008,0.794-1.008,2.368-1.396,3.005
		l-6,9.543l-0.451-0.031l-5.95-10.706c-0.22-0.408-0.795-1.699-0.8-2.212c0.002-1.246,0.526-2.237,2.64-2.239l0.531,0.061
		l0.062-0.733l-15.205-0.06l-0.058,0.733c3.599,0.242,3.628,1.041,5.998,4.982l8.134,13.514v9.917
		c-0.005,2.638-1.064,4.789-3.379,5.291v0.849h13.389v-0.831c-2.496-0.463-3.78-2.604-3.783-5.309l0.01-10.346l9.711-14.475
		c0.707-1.053,1.923-3.354,4.952-3.587l0.058-0.68L566.386,2.167z"/>
	<path fill="#FFFFFF" d="M215.019,36.663l-0.062,0.793h24.228h-10.191l0.033-0.729c-0.251-0.019-0.493-0.052-0.725-0.091
		c-0.636-0.113-1.192-0.3-1.66-0.521c-0.067-0.034-0.129-0.066-0.193-0.103c-0.557-0.287-0.978-0.613-1.229-0.896
		c-0.764-0.859-1.203-2.56-1.599-3.588L211.94,1.213L211.86,1c-1.953,1.304-4.3,2.147-6.556,2.755l-0.046,0.533
		c0.774,0.189,0.993,0.656,1.432,1.466l-9.915,26.766c-0.93,2.528-1.693,4.156-4.359,4.144l-0.061,0.718v0.076h9.251l0.062-0.793
		c-2.491-0.204-3.227-1.009-3.227-1.783c0.004-0.474,0.452-1.4,0.796-2.398l2.238-6.387l13.142,0.04l2.578,6.743
		c0.22,0.576,0.597,1.172,0.6,1.804C217.792,35.438,217.354,36.725,215.019,36.663 M202.375,23.839l5.638-15.387l0.26,0.041
		l5.55,15.266l0.032,0.081L202.375,23.839L202.375,23.839z"/>
</g>
</svg>
