<?xml version="1.0" encoding="utf-8"?>
<!-- Generator: Adobe Illustrator 16.0.0, SVG Export Plug-In . SVG Version: 6.00 Build 0)  -->
<!DOCTYPE svg PUBLIC "-//W3C//DTD SVG 1.1//EN" "http://www.w3.org/Graphics/SVG/1.1/DTD/svg11.dtd">
<svg version="1.1" id="Layer_1" xmlns="http://www.w3.org/2000/svg" xmlns:xlink="http://www.w3.org/1999/xlink" x="0px" y="0px"
	 width="1009px" height="223px" viewBox="0 0 1009 223" enable-background="new 0 0 1009 223" xml:space="preserve">
<rect x="677.892" y="55.221" width="0" height="0.002"/>
<polygon points="555.558,43.542 555.558,43.542 555.561,43.542 "/>
<rect x="478.322" y="42.409" width="0" height="0.001"/>
<polygon points="465.226,37.566 465.226,37.321 465.223,37.566 "/>
<rect x="279.453" y="55.502" width="0" height="0.001"/>
<path d="M850.204,177.066h-2.591h-1.448l-0.494,1.362c-7.172,19.794-13.064,25.216-27.406,25.216h-32.58
	c-4.846,0-5.698-0.8-5.698-5.341v-48.259h10.682c12.041,0,16.479,4.033,17.58,15.991l0.174,1.875h1.883h2.592h2.067v-2.067v-43.788
	v-2.066h-2.067h-2.376h-1.846l-0.209,1.833c-1.307,11.539-6.399,16.248-17.58,16.248h-10.899V89.047h33.126
	c15.558,0,21.502,15.652,23.661,24.977l0.37,1.601h1.642h2.808h2.403l-0.36-2.375l-5.178-34.206l-0.264-1.755h-1.779h-98.2h-2.065
	v2.066v2.612v2.01l2.01,0.057c11.612,0.322,13.738,5.94,13.738,16.889v90.849c0,12.165-3.844,16.956-13.713,17.103l-2.035,0.029
	v2.038v2.831v2.065h2.065h106.599h1.771l0.271-1.747l5.389-34.641l0.37-2.385H850.204z"/>
<path d="M731.195,113.015l-5.396-33.985l-0.277-1.742h-1.764H610.039h-1.778l-0.27,1.756l-5.177,34.204l-0.357,2.376h2.403h3.018
	h1.647l0.368-1.606c3.946-17.269,12.244-24.969,26.906-24.969h15.624v102.723c0,11.021-1.97,16.076-13.619,16.891l-1.921,0.136
	v1.927v3.048v2.065h2.066h56.323h2.067v-2.065v-3.048v-2.009l-2.007-0.058c-10.63-0.301-14.396-4.72-14.396-16.887V89.048h16.714
	c15.388,0,23.429,7.386,26.885,24.694l0.335,1.664h1.691h2.592h2.418L731.195,113.015z"/>
<path d="M569.287,133.417c-4.756-1.87-9.728-3.734-14.535-5.539c-4.873-1.828-9.919-3.722-14.596-5.569
	c-5.073-2.004-13.578-6.823-13.578-16.598c0-10.247,11.078-17.971,25.766-17.971c21.738,0,33.341,7.894,38.795,26.402l0.439,1.483
	h1.546h2.587h2.421l-0.377-2.39l-5.394-34.2l-0.275-1.747h-1.766h-1.728h-1.284l-0.567,1.149c-1.265,2.552-2.296,2.552-2.681,2.552
	c-2.576,0-5.68-1.042-9.275-2.248c-5.689-1.91-12.77-4.286-22.227-4.286c-31.181,0-52.133,15.888-52.133,39.537
	c0,17.626,9.964,30.016,30.459,37.876c5.025,1.929,9.633,3.602,14.507,5.375l3.222,1.172c26.204,9.563,29.928,13.891,29.928,24.858
	c0,12.833-10.284,20.805-26.844,20.805c-26.551,0-40.538-10.092-46.771-33.749l-0.403-1.543h-1.595h-2.375h-2.39l0.345,2.367
	l6.256,42.915l0.26,1.77h1.788h2.158h1.614l0.394-1.568c0.663-2.677,1.857-3.874,2.742-3.874c2.301,0,5.493,0.88,9.539,1.999
	c7.597,2.098,18.006,4.972,32.535,4.972c28.506,0,51.697-19.205,51.697-42.811C607.492,152.904,592.219,142.453,569.287,133.417z"/>
<path d="M488.9,77.285h-56.317h-2.069v2.067v2.614v2.012l2.013,0.053c11.867,0.322,13.957,5.773,13.957,17.107v90.631
	c0,11.284-2.019,16.401-13.985,16.89l-1.984,0.078v1.986v3.048v2.067h2.069H488.9h2.068v-2.067v-3.048v-2.009l-2.01-0.056
	c-10.597-0.304-14.172-4.563-14.172-16.89v-90.631c0-12.49,3.575-16.805,14.172-17.107l2.01-0.055v-2.01v-2.614v-2.067H488.9z"/>
<path d="M430.427,143.3h-57.399h-2.067v2.066v2.61v2.066h2.067c11.478,0,14.118,3.241,14.118,17.329v21.129
	c0,9.968-3.679,20.157-30.945,20.157c-25.979,0-40.878-23.23-40.878-63.729c0-40.692,14.334-61.326,42.602-61.326
	c22.792,0,37.038,9.932,43.559,30.365l0.459,1.436h1.511h2.59h2.371l-0.322-2.346l-4.747-34.638l-0.246-1.786h-1.803h-1.727h-1.01
	l-0.62,0.793c-1.204,1.54-2.274,2.476-7,2.476c-3.135,0-7.515-1.36-12.157-2.798c-6.307-1.954-13.458-4.17-20.644-4.17
	c-22.948,0-41.903,7.533-54.82,21.783c-12.073,13.32-18.452,31.812-18.452,53.483c0,20.564,6.859,38.166,19.842,50.895
	c13.348,13.094,32.271,20.014,54.724,20.014c13.603,0,22.45-2.791,31-5.484l1.558-0.492c1.437-0.451,2.961-0.962,4.536-1.487
	c5.621-1.883,11.993-4.014,17.182-4.304l1.952-0.109v-1.955v-37.904c0-13.417,2.783-16.656,14.881-17.331l1.953-0.109v-1.956v-2.61
	V143.3H430.427z"/>
<path d="M1004.502,210.265c-1.522,0.485-4.028,0.775-6.703,0.775c-4.134,0-7.232-4.122-14.023-13.152
	c-1.055-1.398-2.191-2.911-3.427-4.534c-5.578-7.321-10.529-13.965-15.586-20.91l-1.61-2.218
	c-6.632-9.146-11.773-16.24-19.037-19.985c17.855-5.933,31.139-21.625,31.139-37.766c0-21.705-18.398-35.185-48.021-35.185h-66.887
	h-2.068v2.066v2.612v2.028l2.028,0.039c9.771,0.19,13.939,5.436,13.939,17.541v90.197c0,11.815-4.039,16.708-13.937,16.886
	l-2.031,0.036v2.029v3.05v2.065h2.068h56.965h2.067v-2.065v-3.05v-2.029l-2.027-0.036c-10.388-0.194-15.021-5.402-15.021-16.886
	V155.06h8.519c8.481,0,12.78,2.236,17.031,8.854c3.396,5.285,7.36,11.279,12.379,18.87c2.217,3.356,4.627,7,7.263,10.998
	l1.807,2.752c8.549,13.069,16.621,25.411,33.798,25.411c11.549,0,17.51-1.743,22.907-4.36l1.164-0.564v-1.295v-3.491v-2.831
	L1004.502,210.265z M946.097,115.089c0,19.339-13.482,27.997-26.847,27.997h-16.92V89.047h17.567
	C937.037,89.047,946.097,98.054,946.097,115.089z"/>
<path d="M282.102,177.065h-2.16h-1.46l-0.489,1.375c-6.676,18.845-13.751,25.206-28.044,25.206h-32.367
	c-6.129,0-6.129-1.185-6.129-4.034v-49.567h11.114c12.203,0,16.693,4.034,17.793,15.988l0.173,1.875h1.885h2.16h2.066v-2.065
	v-43.791v-2.066h-2.066h-1.51h-1.847l-0.208,1.832c-1.291,11.39-6.744,16.251-18.232,16.251h-11.328V89.047h33.125
	c16.16,0,22.166,15.648,24.309,24.973l0.365,1.604h1.648h2.157h2.403l-0.36-2.377l-5.176-34.202l-0.263-1.756h-1.78h-98.204h-2.067
	v2.066v2.61v1.984l1.982,0.082c11.599,0.473,13.557,5.591,13.557,16.89v91.284c0,11.674-3.073,15.812-11.746,15.812
	c-8.577,0-17.085-11.997-26.091-24.701l-1.347-1.898c-4.543-6.382-8.564-12.169-13.221-18.872l-1.856-2.668
	c-5.374-7.731-11.681-13.207-18.823-16.352c12.806-4.078,31.686-14.523,31.686-40.64c0-25.332-23.601-41.066-61.593-41.066
	c-31.89,0-60.779,5.256-72.824,8.365l-1.279,0.331l-0.241,1.297L2.795,88.149l-0.342,1.862l1.827,0.507l2.37,0.656l1.356,0.374
	l0.846-1.121c4.497-5.957,8.782-10.146,25.41-12.988v114.333c0,11.541-4.49,16.435-15.499,16.887l-1.982,0.083v1.985v3.043v2.067
	h2.066h60.206h2.066v-2.067v-3.043v-1.985l-1.981-0.083c-11.164-0.459-15.929-5.51-15.929-16.887V148.09h11.98
	c11.097,0,15.865,4.4,19.959,11.492c4.288,7.425,11.011,19.032,19.886,34.112c9.885,16.773,19.62,27.171,37.601,27.171
	c10.561,0,19.348-1.599,27.607-5.028h96.032h1.747l0.293-1.725l5.828-34.638l0.404-2.409H282.102z M110.864,105.5
	c0,19.17-10.763,30.617-28.79,30.617H63.209V74.492c4.259-0.406,9.56-0.913,16.951-0.913
	C95.002,73.579,110.864,81.964,110.864,105.5z"/>
<path d="M363.231,4.014v1.029l-0.088,0.02c3.984,0.011,6.632,3.032,6.64,8.34l-0.087,25.136l-0.362-0.033L341.515,4.101
	l-14.977-0.086h-0.299v1.049c4.375,0.179,6.322,2.144,7.968,4.93v35.284c-0.005,3.332-1.138,5.883-3.035,7.246
	c-0.597,0.485-1.316,0.823-2.108,0.954c-0.222,0.047-0.468,0.039-0.701,0.063c-0.264,0.033-0.516,0.083-0.794,0.08l0.25,1.046h0.123
	h16.048l0.089-1.046c-3.963-0.007-6.63-3.218-6.637-8.343l0.092-31.107l0.353,0.031l32.588,40.376l2.54,0.088V13.403
	c0.009-5.271,2.536-8.292,6.551-8.336V4.101L363.231,4.014z"/>
<path d="M731.119,4.017l-1.086,11.485l-0.131,1.516l1.332,0.076c1.08-6.359,3.837-10.046,10.334-10.035l7.489,0.085v39.271
	c-0.007,4.129-2.042,7.192-6.55,7.11l-0.086,1.136h22.387l0.094-1.047c-4.586-0.006-6.621-3.038-6.632-7.199l0.094-39.356h7.675
	c6.34-0.007,9.1,4.182,10.244,10.241h1.329l-0.758-13.199L731.119,4.017z"/>
<polygon points="729.893,17.103 729.893,17.106 729.942,17.106 "/>
<path d="M669.895,53.617c-4.512-0.005-6.916-3.174-6.921-7.484V12.267c0.005-4.361,2.367-7.193,6.834-7.11l0.087-1.057
	l-22.233-0.086h-0.444l-0.088,1.049c4.591,0.011,6.341,2.873,6.348,7.204l-0.021,33.917c-3.256,4.068-8.445,6.863-12.873,6.863
	c-9.239-0.011-11.176-4.593-11.188-14.024V12.267c0.007-4.168,2.052-7.193,6.549-7.11l0.091-1.057l-21.955-0.086h-0.437
	l-0.088,1.049c4.63,0.011,6.621,2.801,6.628,7.204V38.45c0.018,12.583,6.017,17.255,17.836,17.27c7.428,0,12.232-3.273,15.593-6.522
	l0.152-0.147l-0.088,5.617h16.139L669.895,53.617z"/>
<path d="M554.141,40.885c-3.858,6.245-9.549,11.311-17.65,11.311c-10.347-0.005-17.713-10.435-17.731-24.844
	c0.019-13.456,6.454-21.982,16.881-21.999c7.896-0.007,15.384,4.303,17.356,13.655l1.533,0.089h0.088l-1.338-15.566l-1.347-0.048
	c-0.633,1.278-2.012,1.473-2.919,1.473c-3.095,0-6.069-1.711-13.944-1.704c-15.458,0.002-26.377,10.242-26.381,26.662
	c0.004,15.198,10.704,25.802,25.526,25.805c10.975,0,16.927-5.872,21.239-13L554.141,40.885z"/>
<polygon points="554.698,19.098 554.707,19.098 554.566,17.572 "/>
<polygon points="451.638,26.407 451.638,26.035 451.638,26.407 "/>
<path d="M478.22,41.647l-1.518-0.325c-2.68,7.414-5.257,10.025-10.899,10.017h-11.439c-3.178-0.002-3.507-0.689-3.511-2.103
	c0-0.255,0.008-0.53,0.008-0.832l0.088-18.016h7.113c4.836-0.018,6.785,1.112,7.11,6.255l1.343,0.095l0.086-16.7l-1.342-0.08
	c-0.52,5.232-2.856,6.644-7.198,6.627l-7.202-0.089l0.088-19.153h14.8c5.38,0,7.575,4.262,8.82,9.959l1.217,0.088h0.114
	l-1.332-13.291l-39.75-0.086l-0.089,1.032v0.021c4.674,0.007,6.624,2.99,6.626,7.2v34.151c-0.002,4.2-1.922,7.196-6.537,7.109
	l-0.089,1.139l0,0h41.229L478.22,41.647z"/>
<polygon points="475.98,17.392 475.989,17.392 475.853,16.107 "/>
<path d="M414.555,28.484h-0.404l-0.089,1.904c4.562,0.008,5.773,1.244,5.776,6.637v8.252c-0.012,5.688-4.422,8.333-13.171,8.339
	c-10.573-0.005-16.009-10.903-16.024-25.132c0.015-13.06,4.812-23.396,17.443-23.421c10.216-0.003,14.395,6.077,16.506,14.227
	l1.261,0.09h0.072l-1.046-15.279L424.06,4.09c-1.543,0.823-3.322,0.863-3.672,0.863c-0.037,0-0.053,0.007-0.064,0.007
	c-1.957-0.057-7.468-2.279-12.238-2.279c-17.807,0.003-27.792,12.045-27.797,27.517c0.005,14.987,10.658,25.515,27.797,25.522
	c10.629,0,16.19-4.127,20.692-4.178V37.025c0.003-5.52,1.501-6.616,5.973-6.637l0.085-1.801V28.57L414.555,28.484z"/>
<polygon points="426.012,19.38 426.017,19.38 425.954,18.532 "/>
<path d="M587.044,2.395c-15.944,0.004-27.234,10.864-27.239,26.38c0,15.371,11.406,26.941,26.95,26.945
	c15.437-0.003,26.662-11.509,26.667-26.945C613.417,13.671,602.333,2.399,587.044,2.395z M586.475,53.617
	c-10.218-0.003-16.582-10.25-16.595-24.561c0.013-14.496,6.247-24.271,16.875-24.275c10.347,0.004,16.579,9.986,16.594,24.847
	C603.334,43.998,596.962,53.617,586.475,53.617z"/>
<polygon points="245.279,27.627 245.279,27.828 245.279,27.828 "/>
<polygon points="245.367,31.616 245.393,31.616 245.367,31.616 "/>
<path d="M201.601,56.004c15.432-0.004,26.659-11.794,26.661-27.23c-0.002-15.103-11.088-26.091-26.375-26.094
	c-15.936,0.003-27.23,10.568-27.23,26.094C174.657,44.145,186.051,56,201.601,56.004z M201.601,4.781
	c10.346,0.004,16.293,9.979,16.311,24.847c-0.018,14.353-5.813,23.989-16.311,23.989c-10.223-0.003-16.575-10.25-16.59-24.561
	C185.025,14.568,190.973,4.785,201.601,4.781z"/>
<path d="M278.855,53.463c-2.21,0-5.18-3.208-5.314-3.349c-1.317-1.734-2.859-4.142-4.722-7.356l-3.128-5.404
	c-1.957-3.375-4.471-5.552-7.129-7.162l0.065-0.369c5.376-1.504,10.186-6.913,10.179-12.435c0-8.196-6.494-12.997-16.7-13.004
	l-22.221-0.087h-0.454L229.34,5.33v0.02c4.603,0.007,6.629,3.059,6.636,7.199v33.869c-0.007,4.191-1.984,7.196-6.545,7.112
	l-0.088,1.136h22.393l0.089-1.036v-0.01c-4.588-0.007-6.63-2.79-6.632-7.203l0.086-14.896h1.418c2.564,0,4.665,1.109,6.618,3.74
	c1.347,1.813,4.107,5.665,7.403,11.394c3.315,5.77,7.183,8.778,11.878,8.778c2.774,0,5.154-0.57,6.176-0.834l0.082-0.979h-0.013
	L278.855,53.463z M248.978,28.005l-3.785-0.089l0.086-20.572h4.268c6.329,0.01,9.753,3.814,9.761,10.898
	C259.297,24.946,255.262,27.991,248.978,28.005z"/>
<path d="M710.527,4.014v1.029l-0.084,0.02c3.981,0.011,6.627,3.032,6.635,8.34l-0.085,25.136l-0.363-0.033L688.812,4.101
	l-14.978-0.086h-0.297v1.049c4.372,0.179,6.319,2.144,7.969,4.93v35.284c-0.007,3.332-1.139,5.883-3.034,7.246
	c-0.601,0.485-1.318,0.823-2.108,0.954c-0.225,0.047-0.47,0.039-0.704,0.063c-0.208,0.024-0.421,0.052-0.637,0.062l-0.087,1.063
	h8.552h7.8l0.088-1.046c-3.814-0.007-6.401-3.003-6.599-7.795c-0.007-0.186-0.037-0.355-0.037-0.548l0.089-31.107l0.355,0.031
	l32.593,40.376l2.535,0.088V13.403c0.01-5.271,2.538-8.292,6.554-8.336V4.101L710.527,4.014z"/>
<path d="M813.728,4.014l-0.089,1.053c3.104,0.004,4.922,1.533,4.93,3.79c-0.011,1.139-1.446,3.398-2.007,4.312l-8.61,13.699
	l-0.649-0.045l-8.539-15.368c-0.315-0.584-1.142-2.438-1.147-3.174c0.002-1.788,0.755-3.21,3.788-3.214l0.763,0.086l0.092-1.053
	l-21.827-0.086l-0.081,1.053c5.164,0.348,5.208,1.494,8.609,7.152l11.675,19.396V45.85c-0.008,3.785-1.53,6.874-4.85,7.594v1.217
	H815v-1.193c-3.583-0.665-5.426-3.736-5.432-7.618L809.584,31l13.939-20.776c1.014-1.51,2.759-4.812,7.106-5.15l0.083-0.974
	L813.728,4.014z"/>
<path d="M309.393,53.527l-0.089,1.139h34.775h-14.628l0.048-1.046c-0.36-0.027-0.708-0.074-1.04-0.13
	c-0.913-0.163-1.711-0.431-2.382-0.748c-0.098-0.049-0.186-0.096-0.278-0.146c-0.799-0.411-1.404-0.879-1.764-1.287
	c-1.097-1.233-1.726-3.672-2.294-5.149L304.975,2.646l-0.116-0.306c-2.804,1.871-6.171,3.083-9.411,3.954l-0.065,0.765
	c1.111,0.272,1.425,0.943,2.054,2.104l-14.231,38.418c-1.334,3.628-2.431,5.965-6.257,5.946l-0.086,1.03v0.109h13.279l0.088-1.139
	c-3.575-0.293-4.631-1.448-4.631-2.558c0.005-0.68,0.648-2.01,1.143-3.443l3.212-9.167l18.863,0.057l3.701,9.678
	c0.316,0.827,0.857,1.683,0.861,2.59C313.374,51.77,312.745,53.617,309.393,53.527 M291.245,35.121l8.093-22.085l0.373,0.059
	l7.966,21.912l0.046,0.115H291.245z"/>
</svg>
